<?xml version="1.0" encoding="UTF-8" standalone="no"?>
<!-- Generator: Adobe Illustrator 24.0.2, SVG Export Plug-In . SVG Version: 6.00 Build 0)  -->

<svg
   version="1.1"
   id="svg8"
   inkscape:version="1.2.2 (732a01da63, 2022-12-09)"
   sodipodi:docname="ich-favicon.svg"
   x="0px"
   y="0px"
   viewBox="0 0 85.2 91"
   style="enable-background:new 0 0 85.2 91;"
   xml:space="preserve"
   xmlns:inkscape="http://www.inkscape.org/namespaces/inkscape"
   xmlns:sodipodi="http://sodipodi.sourceforge.net/DTD/sodipodi-0.dtd"
   xmlns="http://www.w3.org/2000/svg"
   xmlns:svg="http://www.w3.org/2000/svg"><defs
   id="defs19" />
<style
   type="text/css"
   id="style2">
	.st0{fill:#FFFFFF;}
	.st1{fill:#363636;}
	.st2{fill:#FF0000;stroke:#20B4AF;stroke-width:0.1733;}
</style>
<sodipodi:namedview
   bordercolor="#000000"
   borderopacity="0.25"
   id="namedview10"
   inkscape:current-layer="svg8"
   inkscape:cx="37.093333"
   inkscape:cy="45.76"
   inkscape:deskcolor="#d1d1d1"
   inkscape:pagecheckerboard="0"
   inkscape:pageopacity="0.0"
   inkscape:showpageshadow="2"
   inkscape:window-height="705"
   inkscape:window-maximized="1"
   inkscape:window-width="1366"
   inkscape:window-x="-8"
   inkscape:window-y="-8"
   inkscape:zoom="5.7692308"
   pagecolor="#ffffff"
   showgrid="false">
	</sodipodi:namedview>
<title
   id="title2">Fichier 2</title>
<g
   id="path4"
   style="fill:#00a9a4;fill-opacity:1">
	<path
   id="path383"
   class="st0"
   d="M42.6,27.3c-9.6,0-17.5,8.2-17.5,18.2S33,63.7,42.6,63.7s17.5-8.2,17.5-18.2S52.3,27.3,42.6,27.3   z M42.6,28.2h0.5c0,0.1-0.2,0.3-0.4,0.4s-1,1.2-1.3,1.1s0-0.3-0.1-0.5c-0.1-0.2-0.2-0.2-0.3-0.3c-0.1-0.2-0.2-0.4-0.3-0.6   C41.4,28.2,42,28.2,42.6,28.2z M44.8,49.2c-0.5,0.7-0.9,1.6-1,2.4c-0.1,0.5,0.1,0.9-0.4,1.3s-0.7,0.3-1,0.7s-0.2,0.9-0.4,1.3   c-0.3,0.3-0.5,0.6-0.8,0.9c-0.1,0.2-0.3,0.3-0.4,0.4c-0.3,0.2-0.4-0.1-0.4,0.4c0,0.5,0.2,0.3,0,0.7c-0.1,0.2-0.3,0.3-0.5,0.5   c-0.3,0.4-0.4,1-0.3,1.5c0.1,0.3,0,0.6,0,0.9s0.4,0.6,0.3,0.9c-0.8,0.1-1.4-0.9-1.5-1.6c-0.2-0.9-0.5-1.8-0.6-2.7   c-0.2-0.9-0.4-1.7-0.5-2.6c0.1-0.9-0.1-1.8-0.6-2.5c-0.5-0.5-1.2-0.7-1.5-1.4C35.1,49.9,35,49.5,35,49c-0.1-0.5-0.5-0.6-0.8-0.9   c-0.6-0.6-0.7-1.5-0.3-2.3c0.2-0.5,1.2-1.9,0.8-2.5c-0.3-0.3-0.8,0.1-1,0c-0.3-0.1-0.5-0.3-0.7-0.5c-0.1-0.5-0.3-0.6-0.8-0.7   c-0.2-0.6-0.5-0.8-1-0.9s-0.7-0.4-1-0.9s-0.3-0.8-0.2-1.5c0.1-0.6,0.1-1.2,0-1.8c-0.6,0.1-0.3,1.3-1,1.1c0-0.6,0.3-0.9,0.4-1.4   s0.1-0.9,0.2-1.3c0.1-0.4,0.3-0.8,0.5-1.2c0.3-0.4,0.7-0.5,0.9-0.9c0.1-0.1,0.1-0.2,0.2-0.4c2.3-2.3,5.2-4,8.5-4.6   c0.1,0.1,0.1,0.1,0.2,0.2c0.1,0.2,0.3,0.4-0.1,0.6c-0.5,0.4-0.9-0.3-1.3-0.2s-0.7,0.7-1.2,0.7c-0.5,0.1-1.2,0.1-1.2,0.8   c0.2,0.1,0.3,0.1,0.5,0.1c0.1,0.3,0.1,0.6,0,0.8c0.6,0.1,0.5-0.2,0.6-0.6s0.6-0.3,0.8-0.7s0.1-0.8,0.7-0.6c0.3,0.1,0.4,0.5,0.8,0.4   c0.1,0.2,0.1,0.4,0,0.5c0.5,0,0.6,0.3,0.8,0.6c0.1,0.2,0.6,0.9,0,0.9c-0.3,0-0.2-0.2-0.4-0.4c-0.2-0.2-0.2-0.1-0.5,0   s-0.9,0-0.6,0.5c0.4,0.5,0.8,0.4,0.1,0.7c-0.1,0.1-0.4,0.2-0.5,0.2c-0.3,0.1-0.2-0.1-0.5-0.1c-0.7,0-0.1,0.5-0.5,0.9   c-0.3,0.2-0.6,0.2-0.9,0.5c-0.3,0.3-0.5,0.5-0.8,0.8c-0.2,0.3-0.3,0.8-0.6,1.1s-0.5,0.4-0.5,0.9c0,0.3,0.1,1-0.3,1.1   c0-0.4,0.2-0.8,0-1.1c-0.1-0.3-0.5-0.5-0.8-0.5c-0.7,0.2-1.3,0.6-1.7,1.2c-0.3,0.4-0.7,1.7-0.4,2.2c0.5,0.7,1.1-0.9,1.6-0.9   c0.3,0.6-0.4,1-0.3,1.5c0.5,0.2,1,0.3,0.8,1l0.1,0.2c0,0.7,0.1,1,0.8,0.8c0.5-0.1,0.9-0.3,1.3-0.5c0.2-0.1,0.4-0.3,0.6-0.4   c0.3,0,0.5,0.2,0.8,0.2c0.3,0,0.5-0.1,0.7-0.1s0.5,0.2,0.8,0.2c0.1,0.3,0.6,0.6,0.8,0.7c0.2,0.1,0.4,0.3,0.6,0.3   c0.2,0.1,0.5,0.1,0.6,0.2c0.4,0.2,0.5,0.9,0.5,1.3c0,0.4-0.4,1-0.3,1.3c0.3,0.4,0.7-0.3,1-0.3s0.2,0.1,0.4,0.2s0.3,0,0.6,0   c0.4,0.1,0.8,0.3,1.1,0.5c0.5,0.1,0.7,0,1.1,0.4C45.7,47.6,45.4,48.3,44.8,49.2L44.8,49.2z M59.2,46.9c-0.1,0.4-0.1,0.9-0.2,1.3   c0,0.1,0,0.2,0,0.3c-0.1,0.5-0.2,1-0.3,1.6c-0.1,0.2-0.2,0.4-0.3,0.6c-0.4,0.8-0.8,1.5-1.3,2.2c-0.4,0.8-0.9,1.6-1.5,2.2   c-0.3,0.3-0.7,0.5-1,0.1c-0.3-0.4-0.4-0.9-0.2-1.3c0.1-0.5,0.4-0.8,0.5-1.3c0.1-0.5,0.2-0.9,0.2-1.4c0-0.5-0.1-0.9-0.2-1.4   c0.1-0.5,0.2-0.9,0.4-1.3c0.1-0.5,0.2-1,0.3-1.5c0.1-0.4,0-0.9-0.3-1.2C55,45.5,54.9,45,55,44.6c0.1-0.4,0.4-1,0.1-1.3   c-0.4,0.4-0.7-0.1-1-0.2s-0.5,0.1-0.9,0.3c-0.4,0.2-0.7,0.3-1.1,0.3c-0.4,0.1-0.8,0-1-0.3c-0.5-0.6-1-1.2-1.4-1.8   c-0.1-0.2-0.2-0.4-0.3-0.6c-0.1-0.2-0.4-0.3-0.4-0.5c-0.2-0.4,0.3-0.8,0.3-1.3c0.1-0.8-0.6-1.8-0.3-2.6c0.2-0.3,0.6-0.5,0.7-0.9   s-0.2-0.3,0-0.6c0.2-0.3,0.3-0.2,0.4-0.3c0.5-0.3,1.9-1.1,2.5-0.6c0.2,0.1,0.1,0.4,0.3,0.5s0.4,0,0.6,0.1c0.3,0.2,0.5,0.5,0.9,0.7   c0.1-0.7,1.7,0.4,1-1c-0.2-0.6-0.8-0.9-1.4-0.9c0,0,0.1,0.2,0.2,0.3c-0.5,0.4-0.5,0-0.7-0.4c-0.3-0.3-0.6-0.5-1-0.5   c0,0.2,0.2,0.3,0.1,0.5c-0.3,0-0.5-0.4-0.7-0.6c-0.2-0.2-0.5-0.3-0.8-0.3c-0.8,0.1-0.3,1.1-1,1.4c-0.6,0.2-1.2-0.2-1.3-0.7   c0-0.1,0-0.2,0-0.3c0-0.5,0.5-0.2,0.5-0.6c0.1-0.4-0.3-0.5-0.5-0.6c0.4-0.9-1.3-0.7-1.3-1.5c0-0.5,0.6-0.3,0.8,0   c0.2,0.3,0.5,0.8,0.8,0.3c0.3-0.5-0.4-0.5-0.7-0.6c-0.4-0.1-0.5-0.4-0.8-0.8c-0.1-0.1-0.1-0.2-0.2-0.3c2.7,0.8,5.2,2.3,7.1,4.4   c3.1,3.3,4.9,7.6,4.9,12.2C59.2,46,59.2,46.4,59.2,46.9L59.2,46.9z M84.6,29.9c-0.3-2.5-1-5-2.3-7.2c-1.3-2.2-3-4.1-5-5.6   c-2-1.5-4.3-2.7-6.7-3.4c-1.5-0.5-3.1-0.9-4.7-1.2c-0.7-0.1-1.1,0.4-1.2,1.1v0.1c-0.1,0.6,0.3,1.3,0.9,1.4c0,0,0,0,0,0   c1.4,0.2,2.8,0.6,4.2,1c2.1,0.7,4.1,1.7,5.9,3c1.8,1.3,3.2,3,4.4,4.9c2.2,3.9,2.9,8.5,1.9,12.9c-0.4,2.2-1.1,4.3-2,6.4   c-0.8-1.5-1.7-3-2.7-4.5c-3.2-4.6-7-8.8-11.4-12.4c-0.9-3.1-2.1-6.2-3.6-9.1c0,0,0-0.1,0-0.1c0,0-0.2,0-0.3,0.1l-0.3,0.2   c-0.1,0.1-0.3,0.2-0.5,0.2C61,17.9,60.8,18,60.8,18v0c1,2,1.8,4.1,2.5,6.3c-4.6-3.4-9.5-6.3-14.7-8.6c1.3-0.3,2.6-0.5,3.9-0.7   c0.7-0.1,0.7-0.4,0.2-0.9c-0.1-0.1-0.2-0.2-0.2-0.3c-0.4-0.6-0.8-1.1-1.5-1c-2.1,0.3-4.2,0.8-6.3,1.4c-4.9-1.8-10.1-3-15.3-3.5   c-1.7-0.1-3.4-0.2-5.2-0.1c1.1-1.4,2.3-2.7,3.7-3.8c1.7-1.6,3.7-2.8,5.8-3.8c2.1-0.9,4.4-1.4,6.7-1.4c2.3,0,4.6,0.5,6.7,1.5   c2.1,0.9,4,2.2,5.7,3.8c0.6,0.5,1.2,1.1,1.7,1.7s1.1,0.7,1.4,0.4c0.3-0.3,0.3-0.8-0.2-1.3s-1.3-1.3-1.9-1.8   c-1.8-1.6-3.9-2.9-6.2-3.9C42.9,0,37.8,0,33.2,2c-2.2,1-4.3,2.4-6.1,4c-1.5,1.4-2.9,2.9-4.1,4.6c-2.8,0.2-5.5,0.7-8.2,1.5   c-2.4,0.7-4.6,1.9-6.7,3.3C6.1,16.9,4.4,18.8,3,21c-1.3,2.2-2.1,4.6-2.4,7.1c-0.3,2.5-0.2,5,0.3,7.5c0.3,1.6,0.8,3.1,1.3,4.6   C2.5,40.7,3,41,3.6,40.9c0.1,0,0.2-0.1,0.3-0.1L4,40.7c0.6-0.2,0.9-0.9,0.7-1.5c0,0,0,0,0,0c-0.5-1.3-0.9-2.7-1.2-4.1   c-0.5-2.2-0.6-4.4-0.3-6.6c0.2-2.2,0.9-4.3,2-6.2c2.3-3.9,6-6.7,10.3-8.1c1.9-0.6,3.9-1.1,5.9-1.4c-1,1.5-1.9,3.1-2.7,4.7   c-2.3,4.8-3.9,9.8-4.9,15c-2.1,2.2-4.1,4.6-5.8,7.2l-0.1,0.2c-0.1,0.1,0.2,0.4,0.5,0.6l0.6,0.4L9.2,41c0,0,0.1,0,0.1,0v-0.1   c1.2-1.7,2.5-3.4,3.9-4.9c-0.4,3-0.7,6.1-0.7,9.1c0,2.4,0.1,4.9,0.3,7.3c-0.6-0.6-1.1-1.3-1.6-1.9c-0.5-0.7-0.9-0.5-1.3,0.1   c0,0.1-0.1,0.1-0.1,0.2c-0.5,0.5-0.6,1.2-0.2,1.8c1.2,1.5,2.4,2.9,3.8,4.2c0.8,5.6,2.5,11.1,4.9,16.2c0.6,1.2,1.2,2.4,1.9,3.6   c-1.5-0.3-3-0.6-4.5-1.1c-2.2-0.7-4.3-1.8-6.1-3.2C5.9,69.5,3.5,65.3,3,60.7c-0.2-2.3-0.1-4.6,0.4-6.8c0.1-0.7,0.3-1.3,0.5-2   c0.2-0.7,0.2-1.3,0-1.3l-0.3-0.2c-0.1-0.1-0.2-0.1-0.3-0.2s-0.5,0.3-0.7,1s-0.4,1.7-0.6,2.5c-0.5,2.4-0.6,4.8-0.3,7.3   c0.6,4.9,3.2,9.4,7.2,12.2c2,1.4,4.2,2.5,6.5,3.3c1.8,0.6,3.6,1,5.4,1.2c1.7,2.7,3.7,5.1,6,7.2c1.8,1.7,3.9,3.1,6.2,4.1   c2.3,1,4.8,1.6,7.4,1.6c2.5,0,5-0.5,7.4-1.5c2.3-1,4.4-2.3,6.3-4c1.2-1.1,2.3-2.2,3.4-3.5c0.4-0.4,0.3-1-0.1-1.4   c-0.1-0.1-0.1-0.1-0.2-0.1L57,79.8c-0.5-0.4-1.3-0.4-1.7,0.1c0,0,0,0,0,0c-0.9,1.1-1.9,2.1-3,3c-1.7,1.5-3.6,2.7-5.6,3.6   c-2,0.9-4.2,1.4-6.4,1.4c-4.5-0.1-8.8-1.8-12.1-4.8c-1.8-1.6-3.4-3.3-4.8-5.3c2.1,0.1,4.2,0.1,6.3,0c5.1-0.4,10.2-1.5,15-3.1   c3.1,0.8,6.2,1.4,9.4,1.7c0.7,0.1,1.2-0.2,1.1-0.5c0-0.3,0-0.4,0-0.6s0-0.2,0-0.3c0-0.1-0.5-0.3-1.2-0.4c-2-0.2-4-0.6-6-1.1   c3-1.2,6-2.6,8.8-4.2c2.2-1.2,4.3-2.6,6.4-4c-0.4,1.1-0.8,2.2-1.2,3.3c-0.3,0.7,0,0.9,0.7,0.7l0.7-0.1c0.7-0.1,1.4-0.6,1.7-1.3   c0.7-1.7,1.2-3.5,1.6-5.3c4.4-3.5,8.3-7.6,11.5-12.2c0.9-1.3,1.7-2.5,2.4-3.9c0.7,1.8,1.3,3.6,1.6,5.4c0.5,2.3,0.5,4.6,0.3,6.9   c-0.3,2.3-1,4.5-2.2,6.5c-1.2,2-2.7,3.7-4.6,5c-1.9,1.3-3.9,2.4-6.1,3.1c-0.9,0.3-1.9,0.5-2.8,0.7c-0.7,0.1-1.2,0.4-1.1,0.7   c0,0.1,0,0.3,0,0.4c0,0.1,0,0.2,0,0.3s0.5,0.2,1.2,0.1c1.1-0.2,2.2-0.5,3.2-0.9c2.3-0.8,4.5-1.9,6.4-3.4c2-1.5,3.6-3.3,4.9-5.4   c1.2-2.1,2-4.5,2.2-6.9c0.2-2.4,0.1-4.8-0.4-7.2c-0.5-2.1-1.1-4.2-2-6.2c1.4-2.6,2.4-5.4,3-8.3C84.7,34.9,84.8,32.4,84.6,29.9z    M19.5,17.9c0.9-1.8,1.9-3.6,3.1-5.2c2.2-0.2,4.4-0.3,6.6-0.1c4.4,0.3,8.8,1.1,13,2.4L41.8,15c-10,3.4-19.2,9-26.8,16.3   C15.9,26.7,17.4,22.1,19.5,17.9z M29.6,77.1c-2.3,0.2-4.6,0.1-6.8-0.1c-1-1.5-2-3.1-2.8-4.7c-2.1-4.3-3.7-8.9-4.7-13.7   c0.4,0.4,0.8,0.8,1.3,1.2c3.6,3.2,7.6,6,11.8,8.3c4.7,2.6,9.6,4.7,14.8,6.3C38.7,75.8,34.2,76.7,29.6,77.1z M56.2,68.3   c-3.2,1.8-6.4,3.4-9.8,4.8c-12.1-3.3-23.1-9.8-31.8-18.9c-0.4-3-0.7-6-0.7-9.1c0-3.5,0.2-7,0.7-10.4c4.5-4.7,9.7-8.6,15.4-11.8   c5.1-2.9,10.6-5.2,16.3-6.8c3.3,1.3,6.5,2.7,9.6,4.5c2.8,1.6,5.4,3.3,8,5.3c1.8,6.2,2.7,12.7,2.6,19.2c0,6-0.9,12.1-2.5,17.9   C61.4,65,58.8,66.7,56.2,68.3z M76.6,49.5c-2.7,4-5.9,7.6-9.5,10.8c0.1-0.3,0.1-0.5,0.2-0.8c1-4.7,1.4-9.5,1.4-14.3   c-0.1-5.8-0.8-11.5-2.3-17.1c3.9,3.2,7.4,7,10.2,11.2c1.1,1.6,2,3.3,2.9,5C78.7,46.1,77.7,47.8,76.6,49.5z M55.3,11.7l1.6-0.4   c0.8-0.3,1.4-0.7,2-1.2l1.2-1.3c0.5-0.5,0.8-0.4,0.8,0.4l1,2.9v2.9c-0.9,0.7-1.4,1-2,0.6L57.5,14l-2.4-1.4   C54.5,12.3,54.6,11.8,55.3,11.7z M63.5,72.7l-0.5,1.7c-0.2,0.8-0.2,1.6,0,2.4l0.4,1.7c0.2,0.7-0.2,0.9-0.7,0.6l-2.4-1.5L58,76.2   c-0.4-0.1-0.5-0.5-0.4-0.9c0.1-0.2,0.2-0.3,0.4-0.4l2.4-1.4l2.4-1.4C63.4,71.7,63.7,72,63.5,72.7L63.5,72.7z M1.6,46.5   c-0.6-0.2-0.7-0.6-0.1-1L4,44.2l2.4-1.3c0.6-0.3,1.1,0,1,0.7l-0.1,2.9l-0.1,2.9c0,0.7-0.4,0.8-0.9,0.3l-1.1-1.3   c-0.6-0.6-1.2-1.1-2-1.3L1.6,46.5z"
   style="fill:#00a9a4;fill-opacity:1" />
	<path
   id="path385"
   class="st1"
   d="M40.3,0c-2.5,0-5,0.5-7.3,1.6h0l0,0c-2.3,1-4.4,2.4-6.2,4.1c-1.5,1.4-2.8,2.9-4,4.5   c-2.7,0.2-5.5,0.7-8.1,1.5c-2.4,0.8-4.7,1.9-6.8,3.4c-2.1,1.5-3.9,3.5-5.3,5.7l0,0v0c-1.3,2.2-2.2,4.7-2.5,7.3v0   c-0.3,2.5-0.2,5.1,0.3,7.6c0.3,1.6,0.8,3.1,1.3,4.7c0.3,0.9,1.4,1.4,2.3,0.8l-0.1,0l0.2-0.1l0,0c0.9-0.3,1.3-1.3,1-2.2   c-0.5-1.3-0.9-2.6-1.2-4v0c-0.5-2.1-0.6-4.3-0.3-6.5v0c0.2-2.1,0.9-4.2,1.9-6c0,0,0,0,0,0c2.3-3.7,5.8-6.5,10-7.8l0,0h0   c1.5-0.5,3.2-0.8,4.8-1.1c-0.8,1.2-1.5,2.5-2.1,3.8l0,0v0c-2.3,4.8-3.9,9.8-4.9,15c-2.1,2.2-4,4.6-5.7,7.1l0,0l-0.1,0.2l0,0   c-0.1,0.2-0.1,0.4,0,0.6s0.1,0.2,0.2,0.3c0.1,0.2,0.3,0.3,0.5,0.4l0.6,0.4l0.1,0.1c0.2,0.2,0.5,0.2,0.7,0l0.2-0.2v-0.1   c0.9-1.2,1.9-2.4,2.8-3.5c-0.3,2.5-0.5,5-0.6,7.6v0v0c0,1.9,0.1,3.9,0.2,5.8c-0.2-0.3-0.4-0.5-0.7-0.8c-0.3-0.4-0.8-0.7-1.2-0.6   S9.8,50,9.5,50.3l0,0l0,0c0,0-0.1,0.1-0.1,0.1l0,0c-0.6,0.6-0.7,1.7-0.2,2.4l0,0l0,0c1.2,1.4,2.4,2.8,3.7,4.1   c0.8,5.6,2.5,11.1,4.9,16.2v0c0.4,0.9,0.9,1.7,1.4,2.6c-1.1-0.2-2.2-0.5-3.3-0.9h0c-2.1-0.7-4.2-1.8-6-3.1l0,0   C6.3,69.2,4,65.1,3.5,60.7v0c-0.2-2.2-0.1-4.5,0.4-6.7v0l0,0c0.1-0.7,0.3-1.3,0.5-2c0.1-0.4,0.2-0.7,0.2-1c0-0.2,0-0.3-0.1-0.5   s-0.2-0.4-0.4-0.5l0.1,0l-0.3-0.2l0,0c-0.1-0.1-0.2-0.1-0.3-0.2c-0.1-0.1-0.3-0.1-0.4-0.1c-0.1,0-0.2,0.1-0.3,0.1   c-0.1,0.1-0.2,0.2-0.3,0.3c-0.2,0.2-0.4,0.6-0.5,1c-0.2,0.7-0.4,1.7-0.6,2.5C1,56,0.9,58.5,1.2,61c0.6,5.1,3.3,9.6,7.4,12.6   c2,1.4,4.2,2.6,6.6,3.3c1.7,0.5,3.5,0.9,5.3,1.2c1.7,2.6,3.7,5,6,7.1c1.9,1.7,4,3.1,6.4,4.2v0c2.4,1.1,5,1.6,7.6,1.7h0h0   c2.6,0,5.2-0.5,7.6-1.5c2.4-1,4.5-2.4,6.5-4.1c1.2-1.1,2.4-2.2,3.4-3.5v0c0.6-0.7,0.4-1.9-0.4-2.3l0.1,0.1l-0.2-0.2l0,0   c-0.7-0.6-1.8-0.5-2.4,0.2h0c-0.9,1.1-1.9,2-2.9,2.9l0,0l0,0c-1.6,1.5-3.5,2.7-5.5,3.5c-2,0.9-4.1,1.3-6.2,1.4   c-4.4-0.1-8.6-1.7-11.8-4.7l0,0l0,0c-1.5-1.3-2.8-2.8-4-4.4c1.7,0.1,3.4,0.1,5.2,0h0h0c5.1-0.4,10.1-1.5,15-3.1   c3.1,0.8,6.2,1.4,9.4,1.7h0c0.4,0,0.8,0,1.1-0.1c0.2-0.1,0.3-0.2,0.4-0.3s0.2-0.4,0.1-0.6c0-0.3,0-0.3,0-0.5V75   c0-0.2-0.1-0.3-0.2-0.4c-0.1-0.1-0.1-0.1-0.2-0.1c-0.1-0.1-0.2-0.1-0.3-0.2c-0.3-0.1-0.6-0.2-1-0.2c-1.5-0.2-3-0.5-4.4-0.8   c2.5-1.1,5-2.2,7.4-3.5h0v0c1.8-1,3.5-2.1,5.2-3.2c-0.2,0.6-0.4,1.3-0.7,1.9v0v0c-0.1,0.2-0.1,0.4-0.1,0.6c0,0.2,0.1,0.4,0.2,0.6   s0.4,0.3,0.6,0.3c0.2,0,0.4,0,0.6-0.1l0,0l0.7-0.1c0.2,0,0.3-0.1,0.5-0.2l-0.6,2c-0.1,0-0.1-0.1-0.2-0.1c-0.2,0-0.4,0.1-0.6,0.2   L60.2,73l-2.4,1.4l0.1,0c-0.5,0.2-0.8,0.7-0.8,1.1s0.3,0.9,0.8,1.1l-0.1,0l2.4,1.5l2.4,1.5c0.2,0.1,0.4,0.2,0.6,0.2s0.5,0,0.6-0.2   c0.2-0.2,0.3-0.4,0.3-0.6c0-0.2,0-0.4-0.1-0.6l0,0l-0.4-1.7c-0.2-0.7-0.2-1.5,0-2.2c0,0,0,0,0,0l0.5-1.7c0,0,0-0.1,0-0.1h0v0   c0-0.2,0.1-0.3,0-0.5c0,0,0-0.1,0-0.1v-2.6c0.6-0.3,1.1-0.7,1.4-1.3l0,0l0,0c0.7-1.7,1.2-3.4,1.6-5.2c4.4-3.5,8.3-7.6,11.5-12.2   l0,0l0,0c0.7-1,1.2-2,1.8-3c0.5,1.4,1,2.8,1.3,4.3c0.4,2.2,0.5,4.5,0.3,6.7c-0.3,2.2-1,4.3-2.1,6.3c-1.1,1.9-2.7,3.5-4.5,4.8   c-1.8,1.3-3.9,2.3-6,3c-0.9,0.3-1.9,0.5-2.8,0.7l0,0c-0.4,0.1-0.7,0.2-1,0.3c-0.1,0.1-0.3,0.2-0.4,0.3s-0.2,0.3-0.2,0.6   c0,0.1,0,0.3,0,0.4l0,0v0.3c0,0.2,0.1,0.3,0.2,0.4s0.1,0.1,0.2,0.1c0.1,0.1,0.2,0.1,0.4,0.1c0.3,0,0.6,0,1-0.1h0   c1.1-0.2,2.2-0.5,3.3-0.9c2.4-0.8,4.6-2,6.6-3.5l0,0c2-1.5,3.7-3.4,5-5.6l0,0l0,0c1.2-2.2,2-4.6,2.3-7.1v0c0.3-2.5,0.1-4.9-0.4-7.4   v0c-0.4-2.1-1.1-4.1-2-6.1c1.3-2.6,2.3-5.4,3-8.2v0c0.6-2.5,0.7-5,0.4-7.6v0c-0.3-2.6-1.1-5.1-2.3-7.4l0,0v0   c-1.3-2.3-3-4.2-5.1-5.8h0c-2.1-1.5-4.4-2.7-6.8-3.5c-1.6-0.5-3.2-0.9-4.8-1.2h0h0c-0.5-0.1-0.9,0.1-1.3,0.4   c-0.3,0.3-0.5,0.7-0.5,1.2l0,0v0.1l0-0.1c-0.2,0.9,0.4,1.8,1.3,2l0,0l0,0c1.4,0.2,2.8,0.6,4.1,1c2.1,0.7,4,1.7,5.8,2.9   c1.7,1.3,3.1,2.9,4.2,4.7c2.1,3.8,2.8,8.3,1.8,12.6v0l0,0c-0.4,1.8-1,3.6-1.7,5.3c-0.7-1.2-1.3-2.4-2.1-3.5l0,0l0,0   c-3.2-4.6-7-8.8-11.4-12.4c-0.9-3.1-2.1-6.1-3.5-9c0,0,0,0,0,0l-0.1-0.4h-0.4c0,0-0.4,0-0.6,0.3l0,0l-0.3,0.2   c-0.1,0.1-0.3,0.1-0.4,0.2l0,0l0,0c-0.1,0.1-0.3,0.1-0.4,0.2c-0.1,0-0.1,0-0.2,0.1c0,0-0.1,0-0.1,0.1c0,0-0.1,0.1-0.1,0.2   c0,0,0,0.1,0,0.1c0,0,0,0,0,0l0,0v0.2l0,0.1c0.7,1.5,1.3,3.1,1.9,4.7c-3.8-2.8-7.9-5.1-12.1-7.1c0.8-0.2,1.6-0.3,2.4-0.4h0l0,0   c0.2,0,0.4-0.1,0.6-0.2c0.2-0.1,0.4-0.3,0.4-0.5s0-0.4-0.1-0.6s-0.2-0.3-0.3-0.5l0,0c-0.1-0.1-0.1-0.2-0.2-0.3v0   c-0.2-0.3-0.4-0.6-0.8-0.9c-0.3-0.3-0.8-0.4-1.3-0.3h0c-2.1,0.3-4.1,0.8-6.2,1.4c-4.9-1.8-10.1-3-15.3-3.5h0l0,0   c-1.3-0.1-2.7-0.1-4.1-0.1c0.9-1,1.8-2.1,2.9-3l0,0l0,0c1.7-1.5,3.6-2.8,5.7-3.7c2.1-0.9,4.3-1.3,6.5-1.3c2.2,0,4.4,0.5,6.5,1.4   c2,0.9,3.9,2.2,5.6,3.7l0,0h0c0.6,0.5,1.1,1.1,1.7,1.7c0.3,0.3,0.7,0.6,1,0.7s0.8,0,1.1-0.2c0.3-0.3,0.4-0.7,0.4-1   c-0.1-0.4-0.2-0.7-0.5-1c-0.5-0.5-1.3-1.3-2-1.9v0c-1.9-1.6-4-3-6.3-4h0C45.3,0.5,42.8,0,40.3,0z M40.4,1c2.4,0,4.7,0.5,7,1.4v0h0   c2.2,0.9,4.2,2.2,6.1,3.8h0C54,6.8,54.8,7.5,55.3,8c0.2,0.2,0.3,0.4,0.3,0.5c0,0.1,0,0.1,0,0.1c0,0-0.1,0-0.2,0   c-0.1,0-0.3-0.1-0.5-0.4c-0.6-0.6-1.1-1.2-1.7-1.7l0,0c-1.7-1.6-3.7-2.9-5.9-3.9c-2.2-1-4.5-1.5-6.9-1.5h0h0   c-2.4,0-4.7,0.5-6.9,1.4l0,0l0,0c-2.2,1-4.2,2.3-6,3.8c-0.1,0.1-0.2,0.2-0.2,0.2c0.1-0.1,0.2-0.2,0.2-0.3h0   c1.8-1.6,3.8-2.9,5.9-3.9C35.6,1.5,38,1,40.4,1L40.4,1z M60.9,8c-0.2-0.1-0.5-0.1-0.7,0s-0.3,0.2-0.5,0.4l-1.2,1.3   c-0.5,0.5-1.1,0.9-1.8,1.1l-1.6,0.4h0c-0.2,0.1-0.4,0.1-0.6,0.3c-0.2,0.1-0.3,0.3-0.3,0.6c0,0.2,0.1,0.5,0.2,0.6   c0.1,0.2,0.3,0.3,0.5,0.4l2.4,1.4l2.4,1.5l0,0c0.4,0.2,0.9,0.3,1.3,0.1c0.4-0.2,0.8-0.4,1.2-0.8l0.2-0.2v-3.2l-1-2.9   c0-0.2,0-0.3-0.1-0.4C61.2,8.3,61.1,8.1,60.9,8z M60.4,9.1L60.4,9.1l1,2.9v2.5c-0.3,0.2-0.6,0.5-0.8,0.5c-0.2,0.1-0.3,0.1-0.5,0   l-2.3-1.5l-2.4-1.4l1.6-0.4l0,0c0.8-0.3,1.6-0.7,2.2-1.4l0,0L60.4,9.1z M24.1,11.1c1.7-0.1,3.4,0,5.1,0.1   c5.2,0.5,10.3,1.6,15.2,3.4l0.2,0.1l0.2-0.1c2-0.6,4.1-1.1,6.2-1.4l0,0l0,0c0.2,0,0.3,0,0.5,0.1s0.4,0.4,0.5,0.6   c0.1,0.1,0.2,0.3,0.3,0.4l0,0l0,0c0,0,0,0.1,0.1,0.1c-1.3,0.2-2.6,0.4-3.9,0.7l-1.5,0.3l1.4,0.6c5.2,2.3,10.1,5.1,14.6,8.5l1.3,1   l-0.5-1.5c-0.7-2-1.5-4-2.3-5.9c0,0,0,0,0,0c0.2-0.1,0.4-0.2,0.5-0.3l0,0l0.1,0c1.4,2.8,2.5,5.7,3.4,8.7l0,0.1l0,0l0.4,1.5   c1.4,5.5,2.2,11.2,2.2,16.9c0,4.8-0.4,9.5-1.4,14.2c-0.1,0.3-0.1,0.6-0.2,0.8l-0.3,1.5l1.1-1c3.6-3.2,6.9-6.9,9.6-10.9v0l0,0   c1.1-1.7,2.1-3.4,3-5.3l0-0.1l0,0l0.4-1c0.9-2.1,1.6-4.3,2-6.5c1-4.5,0.3-9.2-1.9-13.3l0,0l0,0c-1.2-2-2.7-3.7-4.5-5l0,0l0,0   c-1.9-1.3-3.9-2.4-6.1-3.1c-1.4-0.4-2.8-0.8-4.2-1l0,0c-0.4-0.1-0.6-0.4-0.5-0.8l0-0.1v-0.1c0-0.3,0.1-0.4,0.2-0.5   c0.1-0.1,0.2-0.1,0.4-0.1c1.6,0.3,3.1,0.7,4.6,1.2c2.3,0.8,4.5,1.9,6.5,3.4c2,1.5,3.6,3.3,4.9,5.5c1.2,2.2,2,4.5,2.2,7   c0.2,2.4,0.1,4.9-0.4,7.2v0c-0.6,2.8-1.6,5.6-3,8.2l-0.1,0.1l0,0l-0.5,0.9c-0.7,1.3-1.5,2.6-2.4,3.8c-3.2,4.6-7.1,8.6-11.4,12.1   l-0.1,0.1l0,0.2c-0.4,1.8-0.9,3.5-1.6,5.2c-0.3,0.5-0.7,0.9-1.3,1l0,0l-0.7,0.1l0,0c0,0-0.1,0-0.1,0c0,0,0,0,0-0.1v0   c0.4-1.1,0.8-2.2,1.2-3.3l0.5-1.4l-1.2,0.8c-2,1.4-4.2,2.8-6.3,4c-2.8,1.6-5.7,3-8.7,4.2l-1.1,0.4c3.4-1.3,6.6-2.9,9.7-4.8l0,0h0   c2.7-1.6,5.3-3.4,7.8-5.3l0.1-0.1l0-0.2c1.6-5.9,2.5-11.9,2.5-18v0c0.1-6.5-0.8-13-2.6-19.3l0-0.2l-0.1-0.1   c-2.6-1.9-5.3-3.7-8.1-5.3v0h0c-3.1-1.7-6.3-3.2-9.6-4.5l-0.2-0.1l-0.2,0c-5.7,1.6-11.2,3.8-16.4,6.8c-5.7,3.2-11,7.2-15.6,11.9   L14,34.5l0-0.1l-1.1,1.2c-1.3,1.5-2.6,3.1-3.8,4.7l-0.4-0.3h0C8.7,40,8.6,40,8.5,39.9c1.7-2.5,3.6-4.9,5.7-7l0.1-0.1l0-0.1l1-1   C22.9,24.4,32,18.9,42,15.5h0l1.7-0.6l-1.5-0.5c-4.3-1.3-8.7-2.1-13.1-2.4h0h0c-2.2-0.1-4.5-0.1-6.7,0.1l-0.1,0l0,0l-1.1,0.1   c-2,0.3-4.1,0.7-6,1.4C10.9,15.1,7.2,18,4.8,22l0,0l0,0c-1.1,2-1.8,4.1-2.1,6.4v0c-0.2,2.3-0.1,4.6,0.3,6.8   c0.3,1.4,0.7,2.8,1.2,4.1v0c0.1,0.4,0,0.8-0.4,0.9l0,0l-0.2,0.1l0,0c-0.3,0.2-0.7,0.1-0.8-0.3l0,0l0,0c-0.5-1.5-1-3-1.3-4.5v0   c-0.5-2.4-0.6-4.9-0.3-7.3c0.3-2.4,1.1-4.8,2.3-6.9c1.3-2.1,3-4,5-5.4h0c2-1.4,4.2-2.5,6.5-3.3c2.6-0.8,5.3-1.3,8-1.5l0,0l0,0   L24.1,11.1z M29.1,13c3.9,0.3,7.7,1,11.4,2c-9.1,3.3-17.5,8.3-24.6,14.8c0.9-4.1,2.2-8,4-11.8c0.8-1.7,1.8-3.4,2.9-4.9   C24.9,13,27,12.9,29.1,13z M46.1,16.8c3.2,1.2,6.4,2.7,9.4,4.4c2.7,1.5,5.3,3.3,7.8,5.1c1.7,6.1,2.6,12.5,2.5,18.9v0v0   c0,5.9-0.8,11.9-2.4,17.6c-2.4,1.9-4.9,3.6-7.5,5.2c-3.1,1.8-6.3,3.4-9.6,4.7C34.4,69.3,23.6,62.9,15,54c-0.4-2.9-0.7-5.9-0.7-8.8   v0c0,0,0,0,0,0c0-3.4,0.2-6.8,0.7-10.2c4.5-4.6,9.6-8.5,15.2-11.6l0,0l0,0C35.2,20.6,40.6,18.3,46.1,16.8L46.1,16.8z M42.6,26.8   c-9.9,0-18,8.4-18,18.7c0,10.3,8.1,18.7,18,18.7s18-8.4,18-18.7C60.6,35.2,52.5,26.8,42.6,26.8z M43.6,27.9   c0.8,0.1,1.6,0.1,2.3,0.2l0.8,1.1c0,0.1,0.1,0.2,0.2,0.3c0,0,0.1,0.1,0.1,0.1c0,0,0,0,0,0c-0.2,0.2-0.3,0.4-0.3,0.7v0v0   c0,0.4,0.3,0.7,0.5,0.8c0.2,0.2,0.4,0.2,0.6,0.3c0.2,0.1,0.2,0.1,0.3,0.1L48,32l0.4,0.2c0.1,0.1,0.1,0.1,0.2,0.1   c-0.1,0-0.1,0.1-0.2,0.2c-0.1,0.2-0.2,0.4-0.2,0.6v0v0c0,0.9,0.9,1.5,1.7,1.4c0,0,0,0,0,0l0,0l0,0c0,0,0.1-0.1-0.1,0   c-0.2,0.1-0.4,0.2-0.5,0.4c-0.1,0.1-0.1,0.2-0.2,0.4c0,0.2,0.1,0.3,0.1,0.4c0,0.1,0-0.1,0,0c0,0,0,0.1-0.2,0.2   c-0.1,0.1-0.3,0.3-0.5,0.6v0l0,0c-0.3,0.6-0.1,1.1,0,1.6c0.1,0.5,0.2,0.9,0.2,1.1l0,0v0c0,0.1-0.1,0.3-0.2,0.5   c-0.1,0.2-0.3,0.6-0.1,1c0.1,0.2,0.2,0.3,0.3,0.4c0.1,0.1,0.1,0.1,0.1,0.1c0.1,0.2,0.2,0.4,0.3,0.6l0,0l0,0   c0.5,0.6,0.9,1.2,1.4,1.8c0,0,0,0,0,0c0.4,0.4,1,0.6,1.5,0.5c0.4-0.1,0.8-0.2,1.2-0.4l0,0l0,0c0.2-0.1,0.4-0.2,0.5-0.3   c0.1,0,0.2,0.2,0.4,0.3c0.1,0,0.2,0.1,0.3,0.1c-0.1,0.2-0.1,0.3-0.2,0.6v0v0c-0.1,0.6,0,1.2,0.4,1.7l0,0l0,0   c0.2,0.2,0.3,0.5,0.2,0.8l0,0l0,0c-0.1,0.5-0.2,0.9-0.3,1.4l0-0.1c-0.2,0.5-0.3,1-0.4,1.5l0,0.1l0,0.1c0.1,0.4,0.1,0.8,0.1,1.2   c0,0.4-0.1,0.9-0.2,1.3c-0.1,0.3-0.4,0.7-0.5,1.3c0,0,0,0,0,0c-0.2,0.6-0.1,1.3,0.3,1.8l0,0l0,0c0.3,0.3,0.7,0.4,1,0.3   c0.3-0.1,0.5-0.3,0.7-0.4l0,0l0,0c0.7-0.7,1.2-1.5,1.6-2.4l0,0.1c0.4-0.5,0.7-1.1,1-1.7c-2.4,6.8-8.6,11.7-15.9,11.7   c-9.3,0-17-7.9-17-17.7c0-4.2,1.4-8,3.8-11c-0.1,0.3-0.3,0.6-0.4,0.9v0v0c-0.1,0.5,0,0.9-0.2,1.2c-0.1,0.2-0.2,0.4-0.3,0.6   s-0.2,0.6-0.2,1l0,0.3l0.3,0.1c0.2,0.1,0.4-0.1,0.6-0.2c0,0.1,0,0.2,0,0.3l0,0l0,0c0,0.4-0.1,0.6,0,0.9s0.1,0.6,0.3,0.9   c0.1,0.2,0.3,0.5,0.5,0.7s0.5,0.4,0.9,0.4c0.2,0,0.3,0.1,0.3,0.1c0.1,0.1,0.2,0.2,0.3,0.5l0.1,0.2l0.3,0.1c0.2,0,0.3,0.1,0.3,0.1   c0,0,0,0,0,0.1l0,0.2l0.2,0.1c0.3,0.2,0.5,0.4,0.8,0.6l0,0l0,0c0.2,0.1,0.4,0,0.5,0c0.1,0,0.2-0.1,0.3-0.1c0,0,0,0,0,0.1   c0,0.1-0.1,0.4-0.2,0.6c-0.2,0.4-0.5,0.9-0.6,1.2c-0.4,1-0.3,2.1,0.4,2.9l0,0l0,0c0.2,0.2,0.4,0.3,0.5,0.3c0.1,0.1,0.1,0.1,0.2,0.3   l0-0.1c0,0.5,0.1,0.9,0.3,1.4l0,0l0,0c0.2,0.4,0.5,0.7,0.8,0.9c0.3,0.2,0.5,0.4,0.7,0.6c0.4,0.6,0.6,1.3,0.5,2.1l0,0.1l0,0.1   c0.1,0.9,0.3,1.8,0.5,2.7c0,0,0,0,0,0c0,0,0,0,0,0c0.1,1,0.4,1.8,0.6,2.7c0.1,0.4,0.3,0.9,0.6,1.3c0.3,0.4,0.9,0.8,1.5,0.7l0.3-0.1   l0.1-0.3c0.1-0.4-0.1-0.6-0.2-0.8c-0.1-0.2-0.1-0.2-0.1-0.2c0-0.2,0.1-0.6,0-1l0,0l0,0c-0.1-0.4,0-0.8,0.2-1.1l0,0l0,0   c0.1-0.1,0.3-0.3,0.5-0.5l0,0l0,0c0.1-0.1,0.1-0.2,0.2-0.3c0-0.1,0-0.4,0-0.4c0-0.1,0-0.1,0-0.1c0,0,0,0,0,0c0.1,0,0.1,0,0.2,0l0,0   l0,0c0.2-0.2,0.4-0.3,0.5-0.5c0.3-0.3,0.6-0.6,0.8-0.9l0,0l0,0c0.2-0.3,0.2-0.6,0.2-0.8c0-0.2,0.1-0.3,0.2-0.5   c0.1-0.1,0.1-0.1,0.2-0.2s0.4-0.2,0.7-0.4c0.3-0.3,0.5-0.6,0.5-0.9c0-0.3,0-0.5,0-0.6v0c0.1-0.8,0.4-1.6,0.9-2.2l0.1-0.1v-0.1   c0.3-0.4,0.5-0.8,0.6-1.2c0.1-0.5-0.1-1.1-0.5-1.6l0,0l0,0c-0.2-0.3-0.5-0.4-0.8-0.5c-0.2-0.1-0.4,0-0.6-0.1   c-0.4-0.2-0.7-0.3-1.1-0.4l-0.1,0h-0.1c-0.3,0-0.4,0-0.4,0c-0.1,0-0.1-0.1-0.2-0.2c-0.1,0-0.2,0-0.3,0c-0.2,0-0.3,0.1-0.4,0.1   c0.1-0.2,0.2-0.4,0.2-0.7c0-0.2-0.1-0.5-0.2-0.8s-0.3-0.6-0.6-0.8l0,0h0c-0.2-0.1-0.3-0.1-0.5-0.1c-0.1,0-0.2,0-0.2-0.1   c-0.2-0.1-0.3-0.2-0.5-0.3l0,0l0,0c-0.1-0.1-0.3-0.2-0.4-0.3S39,42,39,42l-0.1-0.3l-0.3,0c-0.1,0-0.1,0-0.3-0.1s-0.3-0.1-0.6-0.1   c-0.4,0-0.6,0.1-0.7,0.1c-0.1,0-0.4-0.2-0.9-0.2H36l-0.1,0c-0.3,0.1-0.5,0.3-0.7,0.4l0,0c-0.4,0.2-0.8,0.4-1.2,0.5h0l0,0   c-0.1,0-0.1,0-0.2,0c0,0,0-0.1,0-0.4v-0.1l-0.1-0.2c0-0.1,0.1-0.3,0.1-0.4c0-0.2-0.2-0.4-0.3-0.6c-0.1-0.1-0.3-0.1-0.4-0.2   c0-0.1,0-0.1,0.1-0.3c0.1-0.3,0.3-0.7,0.1-1.2l-0.1-0.3l-0.3,0c-0.4,0-0.6,0.2-0.8,0.4c-0.2,0.2-0.3,0.3-0.4,0.5c0-0.1,0-0.2,0-0.4   c0.1-0.4,0.3-0.7,0.4-0.9c0.4-0.4,0.9-0.8,1.4-1c0.1,0,0.2,0,0.2,0.1l0,0v0c0,0.1,0,0.1,0,0.3c0,0.1-0.1,0.4-0.1,0.6v0.6l0.6-0.1   c0.2,0,0.5-0.2,0.6-0.4c0.1-0.2,0.2-0.4,0.2-0.5c0-0.3,0-0.6,0-0.7v0v0c0-0.2,0-0.1,0-0.2s0.2-0.2,0.4-0.4c0.3-0.5,0.4-0.9,0.6-1.1   c0.2-0.3,0.5-0.5,0.7-0.8c0.1-0.1,0.2-0.1,0.3-0.2c0.1-0.1,0.4-0.1,0.6-0.3l0,0c0.2-0.1,0.4-0.4,0.4-0.6c0-0.1,0-0.1,0-0.1   c0,0,0,0,0.1,0c0.1,0,0.2,0,0.3,0l0,0l0,0c0.2-0.1,0.5-0.2,0.6-0.2c0.2-0.1,0.3-0.1,0.4-0.3c0.1-0.1,0.2-0.2,0.2-0.4   s-0.1-0.3-0.1-0.4c-0.1-0.1-0.1-0.1-0.1-0.1c0,0,0,0,0,0c0,0,0,0,0,0c0,0.1,0.1,0.2,0.3,0.3s0.3,0.1,0.4,0.1h0h0   c0.2,0,0.5-0.1,0.7-0.3s0.1-0.5,0.1-0.7c-0.1-0.3-0.3-0.6-0.3-0.7v0l0,0c-0.1-0.2-0.2-0.3-0.4-0.5c-0.1-0.1-0.3-0.1-0.4-0.2   c0-0.1,0-0.3,0-0.4l-0.1-0.2c0,0,0.1,0,0.1,0c0.1-0.1,0.2-0.2,0.3-0.3c0.1-0.1,0.1-0.3,0.1-0.4c0-0.3-0.1-0.4-0.2-0.5l0,0l0,0   c-0.1-0.1-0.1-0.2-0.2-0.3l0,0c0.1,0,0.1,0,0.2,0l0.2,0.4c0.1,0.2,0.2,0.4,0.3,0.7l0,0l0,0c0.1,0.1,0.1,0.2,0.2,0.2   c0,0.1-0.1,0.2,0,0.4c0.1,0.2,0.2,0.3,0.4,0.4c0.3,0.2,0.6,0,0.8-0.1c0.2-0.1,0.3-0.3,0.5-0.4c0.1-0.1,0.3-0.3,0.4-0.4   s0.2-0.2,0.2-0.2c0.1-0.1,0.2-0.2,0.3-0.3c0.1-0.1,0.3-0.3,0.3-0.6L43.6,27.9z M42,28.7c-0.1,0.1-0.1,0.1-0.2,0.2c0,0,0,0-0.1,0   c0,0,0,0,0,0c-0.1-0.1-0.1-0.2-0.2-0.2C41.7,28.7,41.8,28.7,42,28.7L42,28.7z M36.9,28.9c-0.4,0.1-0.8,0.2-1.1,0.4   C36.2,29.1,36.6,29,36.9,28.9z M48.4,28.9c0.6,0.2,1.2,0.5,1.7,0.8C49.6,29.4,49,29.1,48.4,28.9z M67.2,29.6c3.4,3,6.5,6.3,9,10   c1,1.5,1.9,3.1,2.7,4.7c-0.8,1.7-1.7,3.3-2.8,4.9c-2.4,3.5-5.2,6.7-8.3,9.6c0.9-4.5,1.3-9.1,1.3-13.7   C69.1,39.9,68.4,34.7,67.2,29.6z M38.6,30.2c0,0,0.1,0,0.2,0.1c0.1,0,0.2,0,0.3,0.1c0,0,0,0,0,0l-0.2,0.7h0.7c0.2,0,0.1,0,0.1,0   c0,0,0,0.1,0.1,0.1c-0.1,0-0.1,0-0.2,0c-0.2,0-0.2,0.1-0.3,0.1c0,0-0.3,0-0.6,0.1c-0.1,0-0.2,0.1-0.3,0.1c-0.1,0.1-0.2,0.2-0.2,0.4   c-0.1,0.3,0.1,0.5,0.2,0.7c0,0,0,0,0,0c-0.1,0-0.2,0.1-0.2,0.1c-0.1-0.1-0.2-0.1-0.3-0.1h0h0c-0.2,0-0.5,0-0.7,0.3   C37,33.1,37,33.3,37,33.4c0,0.1,0,0.1,0,0.1c-0.1,0-0.2,0.1-0.3,0.1c-0.2,0.1-0.4,0.2-0.6,0.4c-0.3,0.3-0.6,0.6-0.8,0.9   c-0.4,0.4-0.5,0.9-0.6,1.2c-0.1,0.1-0.2,0.1-0.3,0.3c0,0,0,0.1-0.1,0.2c-0.3-0.2-0.6-0.4-1-0.3l0,0l0,0c-0.8,0.2-1.4,0.7-2,1.3l0,0   l0,0c-0.2,0.3-0.4,0.7-0.5,1.2c-0.1,0.5-0.3,1,0.1,1.5c0.1,0.1,0.2,0.3,0.4,0.4c0.2,0.1,0.4,0,0.6,0c0.2-0.1,0.3-0.2,0.4-0.3   c0,0.1-0.1,0.2-0.1,0.4l0,0.3l0.3,0.1c0.3,0.1,0.5,0.2,0.5,0.2c0,0,0,0.1,0,0.2l-0.1,0.2l0.1,0.2c-0.1-0.1-0.3-0.1-0.4-0.2   c-0.1-0.2-0.2-0.4-0.4-0.6c-0.2-0.2-0.6-0.4-0.9-0.4c-0.2,0-0.2-0.1-0.3-0.1c-0.1-0.1-0.2-0.2-0.3-0.5c-0.1-0.2-0.1-0.3-0.2-0.5   s0-0.4,0-0.7l0,0c0.1-0.7,0.1-1.4,0-2l-0.1-0.5l-0.4,0.1c0.1-0.4,0.1-0.8,0.1-0.9c0.1-0.4,0.2-0.7,0.4-1c0.2-0.2,0.6-0.4,0.9-0.9v0   l0,0c0.1-0.1,0.1-0.2,0.1-0.3c1.2-1.2,2.6-2.2,4.1-3c0,0.1-0.1,0.1-0.1,0.1v0.3l0.3,0.1c0.1,0,0.1,0,0.2,0.1c0,0.1,0,0.2,0,0.3   l-0.1,0.5l0.5,0.1c0.2,0,0.4,0.1,0.6,0c0.2-0.1,0.4-0.2,0.5-0.4c0.2-0.3,0.1-0.4,0.2-0.5c0-0.1,0,0,0.1-0.1   c0.1-0.1,0.4-0.2,0.6-0.5C38.5,30.4,38.5,30.3,38.6,30.2L38.6,30.2z M37.1,30.3c-0.1,0-0.1,0.1-0.1,0.1l0-0.1   C37,30.3,37.1,30.3,37.1,30.3z M49.3,30.4c1.2,0.6,2.3,1.3,3.3,2.2c-0.1,0-0.1-0.1-0.1-0.1l-0.6-0.1v0.1c-0.3-0.2-0.6-0.4-0.9-0.3   c-0.3,0-0.6,0.2-0.8,0.4S50.1,33,50,33.2c0,0.2-0.1,0.3-0.1,0.3c0,0,0,0,0,0c-0.3,0.1-0.6-0.2-0.7-0.5c0,0,0.1,0,0.1-0.1   c0.1-0.1,0.3-0.3,0.3-0.5c0.1-0.4-0.1-0.7-0.3-0.9c-0.1-0.1-0.2-0.1-0.3-0.2c0-0.1,0-0.2,0-0.3c0.1-0.1,0.2-0.1,0.3-0.2   C49.4,30.7,49.3,30.6,49.3,30.4z M33.6,30.5c-0.5,0.3-0.9,0.7-1.4,1C32.7,31.2,33.1,30.9,33.6,30.5z M51.9,30.7   c0.4,0.3,0.8,0.6,1.1,0.9C52.7,31.3,52.3,31,51.9,30.7z M52.2,32.6L52.2,32.6C52.2,32.6,52.2,32.6,52.2,32.6   C52.2,32.6,52.2,32.6,52.2,32.6z M38.2,32.7C38.2,32.7,38.2,32.7,38.2,32.7c0,0,0.1,0.1,0.2,0.1C38.4,32.8,38.3,32.7,38.2,32.7   L38.2,32.7z M30.6,33c0,0,0,0.1-0.1,0.1c0,0-0.1,0.1-0.2,0.2C30.4,33.2,30.5,33.1,30.6,33z M51.1,33.2c0.1,0,0.3,0,0.4,0.1l0,0l0,0   c0,0,0.1,0.1,0.3,0.3c0,0,0.1,0,0.1,0c-0.2,0-0.5,0.1-0.7,0.2c-0.2,0.1-0.3,0.1-0.4,0.2c0,0,0.1-0.1,0.1-0.1   c0.1-0.2,0.1-0.4,0.2-0.6C51,33.2,51.1,33.2,51.1,33.2C51.1,33.2,51,33.2,51.1,33.2L51.1,33.2z M53,33.9c0,0.1,0,0.2,0.2,0.5   c0,0,0.1,0,0.1,0c0,0-0.1,0-0.1,0C53.2,34.3,53.1,34.1,53,33.9L53,33.9z M55.8,34.3L55.8,34.3C55.8,34.4,55.8,34.4,55.8,34.3   C55.8,34.4,55.8,34.4,55.8,34.3L55.8,34.3z M54.3,34.4c0.2,0.1,0.4,0.1,0.5,0.3c0,0,0.1,0.1,0.1,0.1c-0.1,0-0.2,0-0.3,0   c-0.1,0-0.2,0.1-0.3,0.1c0,0,0,0-0.1,0c-0.1-0.1-0.2-0.2-0.4-0.3C54.1,34.6,54.2,34.5,54.3,34.4z M53.7,34.5L53.7,34.5   C53.8,34.5,53.8,34.5,53.7,34.5C53.8,34.5,53.8,34.5,53.7,34.5L53.7,34.5z M52.1,34.6c0.1,0,0.2,0,0.2,0c0,0,0-0.1,0,0   c0,0.1,0.1,0.3,0.3,0.5c0.2,0.2,0.5,0.2,0.6,0.2c0.1,0,0,0,0,0l0,0l0,0c0.1,0.1,0.2,0.2,0.3,0.3s0.4,0.3,0.6,0.4l0.6,0.2l0-0.4   c0.1,0,0.1,0,0.3,0c0.1,0,0.2,0,0.4,0c0,0,0.1-0.1,0.1-0.1c2,2.9,3.1,6.3,3.1,9.8v1l0,0l-0.1,0.3c-0.1,0.5-0.2,0.9-0.2,1.4v0v0.2   c-0.1,0.5-0.2,0.9-0.3,1.4c-0.1,0.2-0.2,0.4-0.3,0.6l0,0c-0.3,0.8-0.8,1.5-1.2,2.2l0,0l0,0c-0.3,0.8-0.8,1.5-1.4,2.1   c-0.1,0.1-0.2,0.2-0.2,0.2c-0.2-0.3-0.2-0.6-0.1-0.9v0l0,0c0.1-0.3,0.4-0.7,0.6-1.3l0,0l0,0c0.1-0.5,0.2-1,0.2-1.5l0,0v0   c0-0.4-0.1-0.9-0.1-1.3c0.1-0.4,0.2-0.8,0.3-1.2l0,0l0,0c0.1-0.5,0.2-1,0.3-1.5c0.1-0.6,0-1.2-0.5-1.7l0,0   c-0.2-0.3-0.3-0.6-0.2-0.9v0c0,0,0,0,0,0c0-0.1,0.1-0.3,0.2-0.6c0-0.1,0.1-0.3,0-0.5s-0.1-0.4-0.3-0.6l-0.3-0.3l-0.3,0.3   c-0.1,0-0.2-0.2-0.4-0.3c-0.3-0.2-0.7-0.1-0.9,0c-0.2,0.1-0.3,0.2-0.5,0.3c-0.3,0.1-0.7,0.2-1,0.3l0,0l0,0c-0.2,0-0.4,0-0.5-0.2   l0,0l0,0c-0.5-0.5-0.9-1.1-1.4-1.7c-0.1-0.2-0.2-0.3-0.2-0.5l0,0l0,0c-0.1-0.2-0.3-0.3-0.3-0.4c-0.1-0.1-0.1-0.1-0.1-0.1l0,0l0,0   c0,0,0,0,0.1-0.2c0.1-0.2,0.2-0.5,0.3-0.8c0.1-0.6-0.1-1.1-0.2-1.5c-0.1-0.4-0.1-0.8-0.1-0.9c0,0,0.1-0.1,0.3-0.2   c0.2-0.1,0.4-0.4,0.5-0.7c0-0.2,0-0.3-0.1-0.5c0,0,0.1,0,0.2-0.1l0,0c0.3-0.2,0.7-0.4,1.1-0.6C51.7,34.7,51.9,34.6,52.1,34.6   L52.1,34.6z M13.9,34.9c-0.5,3.4-0.7,6.9-0.7,10.3v0v0c0,3.1,0.3,6.1,0.7,9.1l0,0.2l0.1,0.1c8.8,9.1,19.8,15.7,32,19l0.1,0l0,0   l1.5,0.4c2,0.5,4,0.8,6.1,1.1c0.3,0,0.5,0.1,0.7,0.2c0,0,0,0,0,0v0c0,0.1,0,0.3,0,0.6c-0.1,0-0.3,0.1-0.6,0.1   c-3.2-0.3-6.3-0.9-9.3-1.7l-0.1,0l-0.1,0l-1.3-0.4c-5.1-1.5-10-3.6-14.7-6.2c-4.2-2.3-8.1-5.1-11.7-8.3v0l0,0   c-0.4-0.4-0.9-0.8-1.3-1.2l-1.1-1.1l0.3,1.5c1,4.8,2.6,9.4,4.7,13.8l0,0c0.8,1.7,1.8,3.3,2.8,4.8l0.1,0.2l0,0l0.5,0.7   c1.4,2,3.1,3.8,4.9,5.4c0,0,0,0,0,0c3.4,3.1,7.8,4.9,12.5,5h0h0c2.3,0,4.5-0.5,6.6-1.5c2.1-0.9,4-2.2,5.7-3.7l0,0   c1.1-0.9,2.1-2,3-3c0.3-0.3,0.7-0.3,1-0.1l0.2,0.2l0.1,0c0.3,0.2,0.4,0.5,0.2,0.8l0,0l0,0c-1,1.2-2.1,2.4-3.3,3.4h0   c-1.8,1.6-3.9,2.9-6.2,3.9c-2.3,1-4.7,1.5-7.2,1.5c-2.5,0-4.9-0.6-7.2-1.6c-2.2-1-4.3-2.3-6.1-4l0,0c-2.3-2.1-4.3-4.5-5.9-7.1   l-0.1-0.1l-0.5-0.9c-0.7-1.2-1.3-2.3-1.9-3.5c-2.4-5.1-4-10.5-4.8-16.1l0-0.2l-0.1-0.1c-1.3-1.3-2.6-2.7-3.7-4.1   c-0.2-0.4-0.2-0.8,0.1-1.1l0,0l0,0c0.1-0.1,0.1-0.2,0.2-0.3l0,0c0.2-0.2,0.3-0.3,0.3-0.3c0,0,0,0,0.2,0.2c0.5,0.7,1.1,1.3,1.6,2   l1,1.2l-0.1-1.5c-0.2-2.4-0.3-4.8-0.3-7.2v0c0,0,0,0,0,0c0-3,0.3-6.1,0.7-9.1L13.9,34.9z M50.2,35.2c0,0,0,0.1,0,0.1c0,0,0,0,0,0   C50.2,35.4,50.2,35.3,50.2,35.2L50.2,35.2z M50.2,35.4C50.2,35.4,50.2,35.5,50.2,35.4C50.2,35.4,50.2,35.4,50.2,35.4   C50.1,35.5,50.2,35.4,50.2,35.4L50.2,35.4z M36.2,42.4c0.1,0,0.3,0.1,0.7,0.2c0.4,0.1,0.7-0.1,0.8-0.1c0,0,0.1,0,0.2,0.1   c0.1,0,0.2,0,0.3,0.1c0.1,0.1,0.2,0.3,0.3,0.4c0.2,0.1,0.4,0.3,0.5,0.3c0.2,0.2,0.4,0.3,0.7,0.4l0,0l0,0c0.2,0.1,0.3,0.1,0.4,0.1   c0.1,0,0.2,0.1,0.2,0c0,0,0.1,0.1,0.2,0.3c0.1,0.2,0.1,0.4,0.1,0.6c0,0-0.1,0.2-0.2,0.5c0,0.1-0.1,0.2-0.1,0.4   c0,0.2-0.1,0.4,0.1,0.6l0,0l0,0c0.1,0.2,0.4,0.4,0.7,0.4c0.3,0,0.4-0.1,0.5-0.2c0.1-0.1,0.2-0.1,0.3-0.2c0.1,0.1,0.1,0.1,0.2,0.1   c0.3,0.1,0.5,0,0.6,0c0.3,0.1,0.7,0.2,1,0.4l0,0l0,0c0.3,0.1,0.5,0.1,0.6,0.1c0.1,0,0.1,0,0.2,0.2c0.3,0.3,0.3,0.5,0.3,0.8   c0,0.2-0.2,0.6-0.5,1L44.3,49v0.1c-0.5,0.7-0.8,1.5-1,2.4v0v0c-0.1,0.3,0,0.6,0,0.7s0,0.1-0.1,0.2c-0.2,0.1-0.3,0.2-0.5,0.3   c-0.2,0.1-0.4,0.3-0.6,0.6c-0.2,0.3-0.3,0.6-0.3,0.8c0,0.2-0.1,0.3-0.1,0.4c-0.2,0.3-0.5,0.6-0.8,0.8l0,0l0,0   c-0.1,0.1-0.2,0.2-0.3,0.3c0,0,0.1,0-0.2,0c-0.1,0-0.4,0.2-0.4,0.4s0,0.3,0,0.4c0,0.2,0,0.3,0.1,0.4c-0.1,0.1-0.3,0.3-0.4,0.5   c0,0,0,0,0,0c-0.4,0.6-0.6,1.3-0.4,2l0-0.1c0,0.1,0,0.3,0,0.5c-0.1-0.2-0.2-0.3-0.2-0.5v0c-0.2-0.9-0.5-1.8-0.6-2.7l0,0l0,0   c-0.2-0.8-0.4-1.7-0.5-2.6l0,0.1c0.2-1-0.1-2-0.7-2.8l0,0l0,0c-0.3-0.3-0.6-0.5-0.9-0.7c-0.2-0.2-0.4-0.3-0.5-0.5   c-0.1-0.4-0.2-0.7-0.2-1.1l0,0l0,0c-0.1-0.4-0.3-0.6-0.5-0.8c-0.2-0.2-0.3-0.2-0.5-0.3c-0.4-0.5-0.5-1.2-0.3-1.8l0,0l0,0   c0-0.1,0.4-0.7,0.6-1.2c0.1-0.3,0.2-0.5,0.3-0.8s0-0.7-0.2-0.9l0,0l0,0c0,0,0,0,0,0c0.3-0.1,0.6-0.2,0.8-0.3l0,0l0,0   C36,42.6,36.1,42.5,36.2,42.4L36.2,42.4z M7.5,42.4c-0.4-0.3-0.9-0.2-1.3,0h0l-2.4,1.3L1.3,45l0,0c-0.4,0.2-0.7,0.6-0.7,1   c0,0.2,0.1,0.4,0.3,0.6c0.2,0.1,0.3,0.2,0.5,0.3l0,0L3,47.5c0.7,0.2,1.3,0.7,1.8,1.2L6,50v0c0.1,0.2,0.3,0.3,0.5,0.4s0.4,0.1,0.7,0   c0.2-0.1,0.4-0.3,0.5-0.5c0.1-0.2,0.1-0.4,0.1-0.6l0.1-2.9l0.1-2.9l0,0C8,43.2,7.9,42.7,7.5,42.4L7.5,42.4z M6.9,43.3   c0,0,0.1,0,0,0.3v0l-0.1,2.9l-0.1,2.9L5.6,48l0,0c-0.6-0.7-1.4-1.2-2.2-1.5l0,0L1.8,46c-0.1,0-0.1,0-0.1,0c0,0,0,0,0.1-0.1l0,0   l2.5-1.3l2.5-1.3C6.9,43.2,6.9,43.3,6.9,43.3L6.9,43.3z M3.3,50.7C3.3,50.8,3.3,50.8,3.3,50.7L3.3,50.7l0.3,0.2c0,0,0,0,0,0.1   c0,0.2-0.1,0.5-0.1,0.8c-0.2,0.7-0.4,1.4-0.5,2c-0.5,2.3-0.7,4.6-0.4,7v0v0c0.5,4.7,2.9,9,6.8,11.9v0c1.9,1.4,4,2.5,6.3,3.3   c-2.3-0.7-4.4-1.8-6.3-3.2h0c-3.9-2.8-6.5-7.1-7-11.9c-0.3-2.4-0.2-4.8,0.3-7.1v0v0C2.6,52.9,2.8,52,3,51.3   C3.1,51,3.2,50.9,3.3,50.7L3.3,50.7z M82.9,53.9c0.2,1.7,0.3,3.4,0.1,5.1c-0.3,2.4-1,4.7-2.2,6.7c-1.2,2.1-2.8,3.9-4.7,5.3h0   c-1.9,1.4-4,2.6-6.3,3.3v0h0c-1,0.4-2.1,0.6-3.2,0.9l0,0h0c-0.2,0.1-0.4,0-0.6,0c0-0.1,0-0.2,0-0.3c0,0,0,0,0.1,0   c0.1-0.1,0.4-0.2,0.7-0.2c1-0.2,1.9-0.5,2.9-0.8c2.2-0.7,4.4-1.8,6.3-3.1h0l0,0c1.9-1.4,3.5-3.1,4.7-5.1l0,0l0,0   c1.2-2,1.9-4.3,2.2-6.6v0v0C83.2,57.3,83.1,55.6,82.9,53.9L82.9,53.9z M55,54.9L55,54.9C55,55,55,55,55,54.9C55,55,55.1,55,55,54.9   L55,54.9z M16.2,60.1C16.2,60.1,16.2,60.1,16.2,60.1c3.7,3.2,7.7,6,11.9,8.4c4.2,2.4,8.7,4.3,13.4,5.7c-3.9,1.2-7.8,2-11.9,2.3   c-2.2,0.2-4.3,0.1-6.5-0.1c-1-1.4-1.9-2.9-2.6-4.5v0c0,0,0,0,0,0C18.5,68.2,17.1,64.2,16.2,60.1L16.2,60.1z M63.1,72.5L63.1,72.5   l-0.5,1.7l0,0c-0.2,0.9-0.2,1.8,0,2.7l0,0l0.4,1.7l0,0c0,0,0,0,0,0l-2.4-1.5l-2.4-1.5l0,0c-0.1,0-0.1-0.1-0.1-0.2s0-0.1,0.1-0.2   l0,0l2.4-1.4L63.1,72.5z"
   style="fill:#00a9a4;fill-opacity:1" />
</g>
<g
   id="g16">
	<path
   id="path310"
   class="st2"
   d="M58.7,14c-0.9-0.6-2-1.2-2.3-1.4l-0.7-0.4l1-0.3c1.3-0.4,1.7-0.6,2.8-1.7l0.9-0.9l0.5,1.4   c0.6,1.8,0.6,3.7,0.1,4.1c-0.2,0.1-0.4,0.3-0.5,0.3C60.4,15.1,59.6,14.6,58.7,14L58.7,14z" />
	<path
   id="path312"
   class="st2"
   d="M60.4,76.9l-2.3-1.4l2.3-1.4c1.3-0.7,2.3-1.3,2.4-1.3c0,0-0.1,0.5-0.2,1.1   c-0.3,1.3-0.3,1.9,0,3.3c0.1,0.6,0.2,1.1,0.2,1.1C62.7,78.3,61.7,77.7,60.4,76.9z" />
	<path
   id="path314"
   class="st2"
   d="M6,48.3c-0.8-1-1.8-1.7-2.9-2c-0.5-0.2-0.9-0.3-0.9-0.4c0-0.1,1-0.6,2.3-1.3l2.3-1.2l0,0.7   c0,0.4,0,1.7-0.1,2.8L6.6,49L6,48.3z" />
	<path
   id="path316"
   class="st2"
   d="M55,54.6c-0.1-0.1,0.1-0.6,0.3-1c0.3-0.6,0.4-1.2,0.4-2.4c0-0.9,0.2-2.1,0.3-2.7   c0.4-1.4,0.3-2.1-0.1-2.8c-0.3-0.5-0.3-0.7-0.2-1.4c0.2-0.8,0.2-1-0.3-1.5c-0.2-0.2-0.3-0.3-0.5-0.1c-0.2,0.1-0.3,0.1-0.3,0   c-0.2-0.3-1-0.2-1.6,0.1c-1.1,0.5-1.2,0.5-2-0.4c-0.4-0.5-0.9-1.1-1-1.4c-0.1-0.3-0.3-0.6-0.4-0.6s-0.1-0.2,0-0.3   c0.2-0.4,0.2-1.5,0-2.3c-0.2-0.6-0.1-0.7,0.3-1.2c0.2-0.3,0.4-0.7,0.4-0.8c0-0.2,0.3-0.4,0.9-0.7c0.8-0.3,0.9-0.4,1-0.1   c0.1,0.1,0.4,0.4,0.7,0.6c1.8,0.9,1.8,0.9,1.8,0.7c0-0.1,0.2-0.2,0.4-0.2c0.7,0,2.2,3,2.9,5.8c0.3,1.2,0.4,2.1,0.4,3.8   c0,2.7-0.2,3.9-1.1,5.5C55.9,54.1,55.2,55,55,54.6z" />
	<path
   id="path318"
   class="st2"
   d="M38.3,56.7c-0.3-1.3-0.5-2.7-0.5-3.2c0-1-0.5-2-1.4-2.7c-0.6-0.5-0.7-0.7-0.9-1.4   c-0.1-0.6-0.3-1-0.7-1.4c-0.8-0.8-0.8-1.2-0.2-2.5c0.3-0.6,0.5-1.4,0.5-1.8c0-0.5,0.1-0.7,0.5-0.8c0.7-0.4,2.1-0.2,2.7,0.3   c0.3,0.2,0.8,0.5,1.2,0.7c0.8,0.3,0.9,0.6,0.7,1.4c-0.1,0.4-0.1,0.8,0,1c0.2,0.4,0.2,0.4,1.3,0.3c0.8-0.1,1.2-0.1,1.5,0.1   c0.2,0.1,0.6,0.3,0.9,0.3c0.8,0.2,0.9,0.8,0.3,1.8c-0.6,1-1.1,2.2-1.1,2.8c0,0.4-0.2,0.6-0.7,1c-0.5,0.4-0.7,0.8-0.9,1.2   c-0.1,0.5-0.4,0.9-1,1.4c-0.6,0.5-0.9,0.9-0.9,1.1c0,0.2-0.1,0.6-0.3,0.9S39,58.1,39,58.4C38.8,59,38.8,58.8,38.3,56.7z" />
	<path
   id="path320"
   class="st2"
   d="M30.5,37.6c-0.1-0.6-0.2-1.1-0.3-1.1c-0.2-0.1-0.2-0.9,0.1-1.3c0.5-0.8,1.9-2.3,3-3.1   c1.7-1.3,1.9-1.3,2.3-0.9c0.3,0.2,0.3,0.5,0.2,0.7c-0.1,0.3,0,0.4,0.7,0.4c0.7,0,0.8,0,1-0.5c0.1-0.3,0.4-0.6,0.6-0.7   c0.2-0.1,0.5-0.2,0.6-0.3c0.1,0,0.1,0.1,0,0.4s-0.2,0.4-0.3,0.4s-0.3,0.2-0.3,0.5c-0.1,0.3-0.3,0.6-0.6,0.7   c-0.3,0.1-0.5,0.3-0.5,0.5c0,0.2-0.2,0.4-0.4,0.5c-0.5,0.2-1.6,1.3-1.9,2c-0.3,0.5-0.4,0.6-1,0.6c-1,0-2.3,0.8-2.7,1.8l-0.3,0.7   L30.5,37.6z" />
	<path
   id="path322"
   class="st2"
   d="M49.4,33.4c-0.1-0.1,0-0.3,0.2-0.5c0.3-0.4,0.3-0.5,0-1c-0.2-0.3-0.3-0.7-0.2-0.9l0.1-0.4   l0.8,0.4c0.4,0.2,1,0.6,1.3,0.9l0.5,0.4l-0.6-0.1C50.8,32,50.1,32.4,50,33C49.9,33.3,49.6,33.5,49.4,33.4z" />
</g>
</svg>
