<?xml version="1.0" encoding="UTF-8" standalone="no"?>
<svg
   viewBox="0 0 302.97 91"
   version="1.1"
   id="svg44"
   sodipodi:docname="ich1.svg"
   inkscape:version="1.2.2 (732a01da63, 2022-12-09)"
   xmlns:inkscape="http://www.inkscape.org/namespaces/inkscape"
   xmlns:sodipodi="http://sodipodi.sourceforge.net/DTD/sodipodi-0.dtd"
   xmlns="http://www.w3.org/2000/svg"
   xmlns:svg="http://www.w3.org/2000/svg">
  <sodipodi:namedview
     id="namedview46"
     pagecolor="#ffffff"
     bordercolor="#000000"
     borderopacity="0.25"
     inkscape:showpageshadow="2"
     inkscape:pageopacity="0.0"
     inkscape:pagecheckerboard="0"
     inkscape:deskcolor="#d1d1d1"
     showgrid="false"
     inkscape:zoom="4.0466053"
     inkscape:cx="64.745628"
     inkscape:cy="45.470212"
     inkscape:window-width="1366"
     inkscape:window-height="705"
     inkscape:window-x="-8"
     inkscape:window-y="-8"
     inkscape:window-maximized="1"
     inkscape:current-layer="svg44" />
  <defs
     id="defs4">
    <style
       id="style2">.cls-1{fill:#fff;stroke:#363636;stroke-miterlimit:10;}.cls-2{font-size:34px;fill:red;font-family:MyriadPro-Regular, Myriad Pro;}.cls-3{letter-spacing:0.01em;}.cls-4,.cls-5,.cls-6,.cls-7,.cls-9{fill:#363636;}.cls-4{letter-spacing:0em;}.cls-5{letter-spacing:-0.01em;}.cls-7{letter-spacing:0em;}.cls-8{letter-spacing:-0.01em;}.cls-9{letter-spacing:-0.01em;}.cls-10{fill:#000;}.cls-11{letter-spacing:0em;}</style>
  </defs>
  <title
     id="title6">ich1</title>
  <path
     class="cls-1"
     d="M 44.41,27.29 A 18.21,18.21 0 1 0 62.63,45.5 18.21,18.21 0 0 0 44.41,27.29 Z m 0,0.88 H 45 c 0,0.15 -0.17,0.26 -0.39,0.44 -0.22,0.18 -1.1,1.23 -1.41,1.07 -0.31,-0.16 0,-0.3 -0.1,-0.46 C 43,29.06 42.9,29 42.83,28.88 a 4.8,4.8 0 0 1 -0.33,-0.61 18.06,18.06 0 0 1 1.91,-0.1 z m 2.28,21 a 5.71,5.71 0 0 0 -1.06,2.43 c -0.08,0.5 0.12,0.88 -0.37,1.25 -0.49,0.37 -0.76,0.28 -1,0.71 -0.24,0.43 -0.2,0.89 -0.43,1.25 a 7,7 0 0 1 -0.87,0.93 2.34,2.34 0 0 1 -0.45,0.44 c -0.3,0.16 -0.45,-0.08 -0.44,0.41 0.01,0.49 0.23,0.3 0,0.66 -0.15,0.19 -0.35,0.35 -0.49,0.53 a 1.6,1.6 0 0 0 -0.3,1.51 c 0.06,0.31 0,0.6 0,0.89 0,0.29 0.37,0.57 0.31,0.89 -0.84,0.14 -1.43,-0.88 -1.58,-1.56 -0.19,-0.9 -0.46,-1.76 -0.6,-2.69 a 17.12,17.12 0 0 1 -0.5,-2.64 3.18,3.18 0 0 0 -0.62,-2.47 C 37.72,51.18 37,51 36.7,50.3 a 5.29,5.29 0 0 1 -0.22,-1.25 c -0.12,-0.49 -0.5,-0.61 -0.85,-0.88 a 2,2 0 0 1 -0.37,-2.32 c 0.2,-0.5 1.27,-1.93 0.8,-2.49 -0.29,-0.32 -0.79,0.1 -1.09,0 A 4.67,4.67 0 0 1 34.2,42.85 c -0.06,-0.51 -0.34,-0.58 -0.79,-0.68 a 1.21,1.21 0 0 0 -1.08,-0.9 C 31.69,41.2 31.58,40.88 31.25,40.4 30.92,39.92 30.97,39.63 31.05,38.93 a 4.79,4.79 0 0 0 0,-1.85 c -0.59,0.07 -0.28,1.32 -1,1.11 -0.06,-0.59 0.27,-0.89 0.44,-1.39 0.17,-0.5 0.08,-0.89 0.18,-1.28 a 3.8,3.8 0 0 1 0.54,-1.2 c 0.27,-0.36 0.7,-0.51 1,-0.9 a 2.12,2.12 0 0 0 0.18,-0.37 17.25,17.25 0 0 1 8.82,-4.6 2.17,2.17 0 0 1 0.17,0.19 c 0.12,0.24 0.27,0.39 -0.06,0.63 -0.57,0.44 -0.9,-0.31 -1.36,-0.22 -0.46,0.09 -0.68,0.66 -1.23,0.73 -0.55,0.07 -1.23,0.12 -1.23,0.77 a 2.45,2.45 0 0 0 0.55,0.13 2.3,2.3 0 0 1 0,0.83 c 0.66,0.11 0.49,-0.2 0.67,-0.61 0.18,-0.41 0.62,-0.34 0.86,-0.66 0.24,-0.32 0.14,-0.77 0.7,-0.56 0.33,0.13 0.41,0.45 0.85,0.39 a 0.83,0.83 0 0 1 0,0.54 c 0.53,0 0.59,0.27 0.84,0.64 0.14,0.22 0.59,0.87 -0.06,0.89 -0.34,0 -0.2,-0.2 -0.44,-0.36 -0.24,-0.16 -0.2,-0.07 -0.5,0 -0.3,0.07 -1,0 -0.58,0.45 0.42,0.45 0.8,0.43 0.12,0.71 -0.15,0.06 -0.42,0.19 -0.56,0.23 -0.34,0.07 -0.21,-0.09 -0.47,-0.1 -0.71,0 -0.07,0.55 -0.56,0.87 -0.32,0.21 -0.67,0.19 -1,0.47 -0.33,0.28 -0.57,0.54 -0.82,0.82 -0.25,0.28 -0.36,0.76 -0.61,1.12 -0.25,0.36 -0.57,0.36 -0.54,0.91 0,0.33 0.15,1 -0.34,1.06 0,-0.41 0.17,-0.75 0,-1.11 a 0.78,0.78 0 0 0 -0.86,-0.45 4.07,4.07 0 0 0 -1.81,1.16 c -0.28,0.4 -0.77,1.69 -0.45,2.15 0.49,0.7 1.12,-0.92 1.69,-0.89 0.29,0.61 -0.39,1 -0.32,1.55 0.56,0.19 1.06,0.25 0.78,1 l 0.11,0.23 c 0,0.69 0.09,1 0.85,0.84 a 4.36,4.36 0 0 0 1.38,-0.52 3,3 0 0 1 0.65,-0.37 c 0.28,0 0.57,0.17 0.84,0.2 a 3.86,3.86 0 0 0 0.77,-0.1 c 0.32,0 0.53,0.17 0.83,0.18 0.12,0.29 0.6,0.57 0.85,0.73 a 3.43,3.43 0 0 0 0.62,0.34 c 0.19,0.07 0.52,0.09 0.67,0.17 a 1.7,1.7 0 0 1 0.57,1.28 c 0,0.33 -0.45,1 -0.3,1.25 0.28,0.44 0.74,-0.25 1.07,-0.25 0.33,0 0.2,0.12 0.41,0.18 0.21,0.06 0.37,0 0.62,0 a 8.8,8.8 0 0 1 1.17,0.45 c 0.53,0.14 0.74,0 1.14,0.43 0.75,0.83 0.46,1.54 -0.2,2.38 z m 15,-2.29 a 9.25,9.25 0 0 0 -0.22,1.35 2.46,2.46 0 0 0 0,0.28 c -0.09,0.53 -0.21,1 -0.35,1.56 a 6,6 0 0 0 -0.3,0.63 14.75,14.75 0 0 1 -1.32,2.24 8,8 0 0 1 -1.5,2.22 c -0.37,0.28 -0.68,0.49 -1,0.12 a 1.5,1.5 0 0 1 -0.22,-1.35 c 0.14,-0.45 0.45,-0.84 0.57,-1.29 a 11,11 0 0 0 0.19,-1.4 7.44,7.44 0 0 0 -0.15,-1.35 c 0,-0.5 0.29,-0.87 0.39,-1.35 a 14.72,14.72 0 0 0 0.3,-1.47 1.29,1.29 0 0 0 -0.37,-1.22 1.59,1.59 0 0 1 -0.38,-1.29 c 0.08,-0.37 0.45,-1 0.11,-1.29 -0.41,0.38 -0.72,-0.07 -1.08,-0.23 -0.36,-0.16 -0.5,0.1 -0.92,0.3 A 6.12,6.12 0 0 1 54.26,43.68 1.08,1.08 0 0 1 53.2,43.37 20.53,20.53 0 0 1 51.71,41.6 5,5 0 0 1 51.44,41.02 c -0.11,-0.19 -0.38,-0.32 -0.46,-0.49 -0.19,-0.37 0.29,-0.85 0.35,-1.3 0.1,-0.81 -0.63,-1.85 -0.27,-2.57 0.15,-0.31 0.64,-0.48 0.72,-0.86 0.08,-0.38 -0.2,-0.33 0,-0.62 0.2,-0.29 0.27,-0.17 0.42,-0.26 0.56,-0.32 2,-1.13 2.57,-0.63 0.16,0.13 0.12,0.36 0.29,0.49 0.17,0.13 0.44,0 0.61,0.14 0.35,0.2 0.54,0.52 0.94,0.65 0.09,-0.71 1.74,0.37 1.07,-1 a 1.54,1.54 0 0 0 -1.5,-0.9 c 0,0 0.09,0.2 0.17,0.27 -0.55,0.44 -0.53,-0.05 -0.75,-0.39 a 2.07,2.07 0 0 0 -0.93,-0.61 c 0,0.19 0.18,0.34 0.15,0.54 -0.34,0 -0.49,-0.4 -0.74,-0.59 A 1,1 0 0 0 53.26,32.6 c -0.85,0.1 -0.29,1.13 -1,1.39 a 1.12,1.12 0 0 1 -1.45,-1 c 0,-0.48 0.48,-0.24 0.57,-0.62 0.09,-0.38 -0.35,-0.51 -0.56,-0.63 0.38,-0.85 -1.37,-0.73 -1.4,-1.5 0,-0.52 0.61,-0.27 0.82,0 0.21,0.27 0.49,0.84 0.79,0.32 0.3,-0.52 -0.46,-0.55 -0.71,-0.63 -0.42,-0.15 -0.57,-0.44 -0.81,-0.77 A 3.15,3.15 0 0 0 49.29,28.87 17.35,17.35 0 0 1 61.75,45.5 c 0,0.46 0,0.91 -0.06,1.36 z M 88.2,29.94 a 18.07,18.07 0 0 0 -2.39,-7.17 18.67,18.67 0 0 0 -5.24,-5.64 25.21,25.21 0 0 0 -6.93,-3.44 35.34,35.34 0 0 0 -4.93,-1.18 1.08,1.08 0 0 0 -1.24,1.09 v 0.1 a 1.21,1.21 0 0 0 1,1.43 30.23,30.23 0 0 1 4.35,1 22.31,22.31 0 0 1 6.2,3 16.81,16.81 0 0 1 4.55,4.87 17.59,17.59 0 0 1 1.94,12.9 30.26,30.26 0 0 1 -2.1,6.39 A 45.6,45.6 0 0 0 80.62,38.83 61.9,61.9 0 0 0 68.74,26.46 54.25,54.25 0 0 0 65,17.32 0.3,0.3 0 0 0 65,17.24 c 0,0 -0.17,0 -0.34,0.14 l -0.32,0.19 a 3.6,3.6 0 0 1 -0.49,0.23 c -0.28,0.12 -0.51,0.21 -0.49,0.24 0.02,0.03 0,0 0,0.05 A 51.43,51.43 0 0 1 66,24.34 75.71,75.71 0 0 0 50.62,15.73 c 1.34,-0.28 2.68,-0.53 4,-0.71 0.69,-0.1 0.71,-0.39 0.24,-0.91 L 54.6,13.77 c -0.37,-0.59 -0.87,-1.14 -1.57,-1 A 45.44,45.44 0 0 0 46.49,14.2 63.78,63.78 0 0 0 30.49,10.72 50.73,50.73 0 0 0 25.11,10.6 31,31 0 0 1 29,6.72 23,23 0 0 1 35.06,3 18.05,18.05 0 0 1 49,3.13 22.66,22.66 0 0 1 55,6.9 c 0.62,0.53 1.22,1.1 1.79,1.68 0.57,0.58 1.11,0.67 1.46,0.41 C 58.6,8.73 58.52,8.15 58.02,7.65 A 27.22,27.22 0 0 0 56.02,5.81 24.42,24.42 0 0 0 49.58,1.94 19.4,19.4 0 0 0 34.62,2 24,24 0 0 0 28.29,6 32.37,32.37 0 0 0 23.91,10.62 35.92,35.92 0 0 0 15.4,12.1 24.89,24.89 0 0 0 8.47,15.43 18.85,18.85 0 0 0 3.16,21 17.84,17.84 0 0 0 0.66,28.15 22.69,22.69 0 0 0 1,35.58 31.9,31.9 0 0 0 2.39,40.2 1.1,1.1 0 0 0 4,40.74 L 4.19,40.66 A 1.16,1.16 0 0 0 4.93,39.13 27.51,27.51 0 0 1 3.7,35.07 20.36,20.36 0 0 1 3.34,28.43 16,16 0 0 1 5.44,22.22 c 2.23,-3.85 6.25,-6.59 10.72,-8.06 a 33.9,33.9 0 0 1 6.18,-1.37 46.29,46.29 0 0 0 -2.79,4.74 58.46,58.46 0 0 0 -5.09,15 52,52 0 0 0 -6,7.18 c -0.05,0.06 -0.09,0.13 -0.14,0.2 -0.05,0.07 0.19,0.36 0.55,0.6 l 0.66,0.44 0.1,0.06 a 0.12,0.12 0 0 0 0.14,0 v -0.06 a 50.82,50.82 0 0 1 4.06,-4.95 68.37,68.37 0 0 0 -0.72,9.14 71.09,71.09 0 0 0 0.3,7.29 c -0.57,-0.63 -1.14,-1.27 -1.68,-1.93 -0.54,-0.66 -1,-0.45 -1.39,0.12 l -0.14,0.19 a 1.37,1.37 0 0 0 -0.2,1.81 49.78,49.78 0 0 0 4,4.2 57,57 0 0 0 5,16.23 c 0.6,1.22 1.27,2.4 2,3.57 A 32.32,32.32 0 0 1 16.34,75.48 23.35,23.35 0 0 1 10,72.28 17.15,17.15 0 0 1 5.29,67.19 16.27,16.27 0 0 1 3.12,60.71 20.61,20.61 0 0 1 3.55,53.89 c 0.15,-0.68 0.33,-1.35 0.53,-2 0.2,-0.65 0.24,-1.27 0,-1.35 L 3.73,50.36 3.37,50.14 C 3.18,50.01 2.84,50.43 2.64,51.14 2.44,51.85 2.19,52.76 2,53.6 a 22.17,22.17 0 0 0 -0.28,7.27 17.6,17.6 0 0 0 2.42,6.89 18.52,18.52 0 0 0 5.12,5.39 24.47,24.47 0 0 0 6.74,3.25 33.94,33.94 0 0 0 5.62,1.22 33.65,33.65 0 0 0 6.22,7.19 24.47,24.47 0 0 0 6.48,4.07 20.38,20.38 0 0 0 7.7,1.62 20,20 0 0 0 7.76,-1.5 24.64,24.64 0 0 0 6.59,-4 31.88,31.88 0 0 0 3.51,-3.46 1,1 0 0 0 -0.3,-1.56 L 59.42,79.87 A 1.28,1.28 0 0 0 57.66,80 30.58,30.58 0 0 1 54.58,83 22.25,22.25 0 0 1 48.74,86.62 18.11,18.11 0 0 1 42.05,88 19.66,19.66 0 0 1 29.38,83.16 a 31.82,31.82 0 0 1 -5,-5.29 50.66,50.66 0 0 0 6.52,0 65.88,65.88 0 0 0 15.69,-3.14 61.42,61.42 0 0 0 9.83,1.7 c 0.7,0.06 1.2,-0.17 1.16,-0.5 a 4.18,4.18 0 0 1 -0.05,-0.61 c 0,-0.1 0,-0.2 0,-0.29 0,-0.09 -0.54,-0.35 -1.24,-0.43 A 58.17,58.17 0 0 1 50,73.54 a 79,79 0 0 0 9.17,-4.18 77.53,77.53 0 0 0 6.66,-4 c -0.38,1.11 -0.79,2.21 -1.25,3.29 -0.27,0.65 0,0.91 0.69,0.74 L 66,69.26 a 2.35,2.35 0 0 0 1.75,-1.26 33.74,33.74 0 0 0 1.7,-5.27 60.2,60.2 0 0 0 12,-12.18 45.24,45.24 0 0 0 2.55,-3.92 28.87,28.87 0 0 1 1.7,5.42 21,21 0 0 1 0.3,6.88 16.6,16.6 0 0 1 -2.27,6.45 17.38,17.38 0 0 1 -4.79,5 23.81,23.81 0 0 1 -6.41,3.06 c -1,0.3 -2,0.54 -3,0.74 -0.69,0.14 -1.22,0.42 -1.19,0.67 a 3.4,3.4 0 0 1 0,0.45 c 0,0.11 0,0.22 0,0.33 0,0.11 0.53,0.24 1.21,0.09 a 29.43,29.43 0 0 0 3.45,-0.89 24.61,24.61 0 0 0 6.73,-3.39 18.68,18.68 0 0 0 5,-5.45 17.57,17.57 0 0 0 2.32,-6.93 21.5,21.5 0 0 0 -0.42,-7.2 30.26,30.26 0 0 0 -2.13,-6.22 32.31,32.31 0 0 0 3.18,-8.31 22.6,22.6 0 0 0 0.52,-7.39 z M 20.29,17.88 a 39.4,39.4 0 0 1 3.19,-5.22 45.1,45.1 0 0 1 6.88,-0.14 61.52,61.52 0 0 1 13.58,2.41 l -0.31,0.1 a 74.31,74.31 0 0 0 -13.7,6 A 72.58,72.58 0 0 0 15.66,31.3 52.45,52.45 0 0 1 20.29,17.88 Z M 30.82,77.07 A 43.53,43.53 0 0 1 23.69,77 40.41,40.41 0 0 1 20.78,72.26 54.33,54.33 0 0 1 15.88,58.57 c 0.44,0.39 0.87,0.78 1.34,1.17 a 72.42,72.42 0 0 0 12.29,8.34 76.34,76.34 0 0 0 15.41,6.25 59.19,59.19 0 0 1 -14.1,2.74 z M 58.55,68.33 A 78.58,78.58 0 0 1 48.29,73.13 72.15,72.15 0 0 1 30.73,66 70.11,70.11 0 0 1 15.1,54.24 68.76,68.76 0 0 1 14.35,45.18 69.86,69.86 0 0 1 15.05,34.77 68.41,68.41 0 0 1 31.15,23 a 74.64,74.64 0 0 1 17,-6.75 77.75,77.75 0 0 1 10,4.46 77.39,77.39 0 0 1 8.31,5.29 63.69,63.69 0 0 1 2.68,19.18 65.13,65.13 0 0 1 -2.58,17.89 76.29,76.29 0 0 1 -8.01,5.26 z M 79.88,49.49 A 57.3,57.3 0 0 1 70,60.33 c 0.06,-0.28 0.11,-0.54 0.17,-0.83 a 66.49,66.49 0 0 0 1.43,-14.33 67.56,67.56 0 0 0 -2.36,-17.06 56.3,56.3 0 0 1 10.68,11.18 41.69,41.69 0 0 1 3,5 41.31,41.31 0 0 1 -3.04,5.2 z M 57.61,11.66 59.31,11.22 A 5.47,5.47 0 0 0 61.43,10 l 1.22,-1.27 c 0.49,-0.51 0.89,-0.35 0.87,0.35 l 1,2.88 v 2.88 c -0.94,0.7 -1.43,1 -2,0.64 L 60,14 57.5,12.57 c -0.63,-0.3 -0.57,-0.73 0.11,-0.91 z m 8.64,61 -0.5,1.7 a 5.48,5.48 0 0 0 0,2.45 l 0.46,1.7 c 0.18,0.68 -0.16,0.94 -0.77,0.58 L 62.97,77.62 60.5,76.15 c -0.61,-0.36 -0.6,-0.92 0,-1.27 l 2.5,-1.4 2.51,-1.4 c 0.6,-0.35 0.94,-0.08 0.74,0.59 z M 1.67,46.48 C 1,46.27 0.96,45.84 1.58,45.48 L 4.14,44.2 6.69,42.88 c 0.63,-0.32 1.11,0 1.07,0.69 L 7.63,46.44 7.5,49.32 c 0,0.7 -0.44,0.84 -0.91,0.32 L 5.42,48.32 A 5.34,5.34 0 0 0 3.35,47 Z"
     id="path8"
     style="fill:#00a9a4;fill-opacity:1;opacity:1;stroke-width:0.5;stroke-dasharray:none" />
  <text
     class="cls-2"
     id="text40"
     x="96.019997"
     y="33.889999"><tspan
       class="cls-3"
       id="tspan10">I</tspan><tspan
       class="cls-4"
       x="104.49"
       y="33.889999"
       id="tspan12">n</tspan><tspan
       class="cls-5"
       x="123.22"
       y="33.889999"
       id="tspan14">t</tspan><tspan
       class="cls-6"
       x="134.27"
       y="33.889999"
       id="tspan16">e</tspan><tspan
       class="cls-7"
       x="151.3"
       y="33.889999"
       id="tspan18">r</tspan><tspan
       class="cls-6"
       x="162.56"
       y="33.889999"
       id="tspan20">n</tspan><tspan
       class="cls-4"
       x="181.43001"
       y="33.889999"
       id="tspan22">a</tspan><tspan
       class="cls-6"
       x="197.68001"
       y="33.889999"
       id="tspan24">tionnal</tspan><tspan
       class="cls-8"
       x="96.019997"
       y="70.889999"
       id="tspan26">C</tspan><tspan
       class="cls-6"
       x="115.5"
       y="70.889999"
       id="tspan28">a</tspan><tspan
       class="cls-9"
       x="131.89"
       y="70.889999"
       id="tspan30">r</tspan><tspan
       class="cls-6"
       x="142.67"
       y="70.889999"
       id="tspan32">eers</tspan><tspan
       class="cls-10"
       x="201.32001"
       y="70.889999"
       id="tspan34" /><tspan
       class="cls-11"
       x="208.52"
       y="70.889999"
       id="tspan36">H</tspan><tspan
       class="cls-6"
       x="230.69"
       y="70.889999"
       id="tspan38">ub</tspan></text>
  <path
     style="fill:#ff0000;fill-opacity:1;stroke:#20b4af;stroke-width:0.247121"
     d="m 40.093759,56.814906 c -0.23272,-1.278633 -0.490608,-2.880809 -0.573085,-3.560391 -0.126489,-1.042223 -0.314717,-1.390308 -1.202682,-2.224087 -0.716438,-0.672719 -1.106086,-1.276832 -1.219772,-1.891146 -0.104571,-0.565058 -0.395612,-1.052424 -0.778162,-1.303081 -0.740286,-0.485053 -0.769962,-1.085828 -0.116873,-2.365989 0.271833,-0.532836 0.494242,-1.299342 0.494242,-1.703347 0,-0.542558 0.145331,-0.782591 0.556021,-0.918338 0.955163,-0.315714 2.212866,-0.07781 3.509039,0.663754 1.224893,0.700785 1.248035,0.735868 1.248035,1.892 v 1.177974 l 1.482725,0.02937 c 3.007437,0.05957 3.658118,0.727532 2.464988,2.530474 -0.35963,0.543437 -0.715636,1.448545 -0.791124,2.01135 -0.09479,0.706713 -0.31804,1.14174 -0.721637,1.406187 -0.321412,0.210597 -0.792138,0.852561 -1.046056,1.426586 -0.253919,0.574026 -0.809302,1.291218 -1.234184,1.593761 -0.424882,0.302543 -0.772514,0.742674 -0.772514,0.978068 0,0.235394 -0.123142,0.551132 -0.273649,0.701639 -0.150507,0.150507 -0.34757,0.63508 -0.437917,1.076828 -0.139943,0.684244 -0.226924,0.458924 -0.587395,-1.521609 z"
     id="path1034" />
  <path
     style="fill:#ff0000;fill-opacity:1;stroke:#20b4af;stroke-width:0.247121"
     d="m 31.681732,37.791987 c -0.07155,-0.602008 -0.207381,-1.394507 -0.301844,-1.761109 -0.147758,-0.573432 0.01317,-0.86357 1.15195,-2.076888 0.728035,-0.775687 1.974719,-1.834344 2.770407,-2.352569 1.237936,-0.806258 1.496482,-0.892455 1.791626,-0.597311 0.189705,0.189705 0.344918,0.519668 0.344918,0.733251 0,0.570686 1.490233,0.53075 1.646697,-0.04413 0.164095,-0.602912 1.318752,-1.450898 1.318752,-0.968498 0,0.193578 -0.166807,0.490396 -0.370682,0.659597 -0.203874,0.169201 -0.370681,0.447858 -0.370681,0.619239 0,0.17138 -0.230661,0.371919 -0.512581,0.445643 -0.281919,0.07372 -0.5729,0.364704 -0.646623,0.646624 -0.07372,0.281919 -0.267075,0.512581 -0.429668,0.512581 -0.324683,0 -1.323977,1.025477 -1.895291,1.944951 -0.258329,0.415756 -0.620916,0.601386 -1.249179,0.63953 -1.103838,0.06702 -2.387794,0.957696 -2.80256,1.944132 l -0.315147,0.749516 z"
     id="path1036" />
  <path
     style="fill:#ff0000;fill-opacity:1;stroke:#20b4af;stroke-width:0.247121"
     d="m 57.455567,54.365796 c 0,-0.152379 0.17914,-0.82474 0.398088,-1.494136 0.218949,-0.669396 0.349284,-1.635131 0.289634,-2.146077 -0.05965,-0.510946 0.03922,-1.419682 0.219713,-2.019413 0.433062,-1.438954 0.414792,-2.508073 -0.0543,-3.177802 -0.265841,-0.379541 -0.332657,-0.811602 -0.21911,-1.416859 0.189122,-1.008107 -0.137705,-1.542679 -0.947543,-1.549843 -0.30327,-0.0027 -0.662604,-0.03681 -0.79852,-0.07583 -0.135917,-0.03903 -0.722286,0.07884 -1.303043,0.26192 -1.02986,0.32466 -1.074627,0.315094 -1.813688,-0.387518 -1.033149,-0.982198 -1.515693,-1.979448 -1.343804,-2.777177 0.0784,-0.36385 0.0316,-1.043934 -0.104005,-1.511299 -0.187665,-0.646804 -0.165927,-0.941908 0.09102,-1.235603 0.185663,-0.212218 0.408462,-0.619184 0.495109,-0.904369 0.223639,-0.736076 1.925095,-1.444894 2.166192,-0.902425 0.04531,0.101937 0.6147,0.463271 1.26532,0.802965 1.020034,0.532566 1.214755,0.566599 1.41391,0.24712 0.401946,-0.644789 1.046514,0.01486 2.127726,2.177501 1.274827,2.549914 1.706513,4.468206 1.67886,7.460385 -0.02715,2.937606 -0.314213,3.955756 -1.846953,6.55074 -1.193743,2.02105 -1.714601,2.658291 -1.714601,2.097723 z"
     id="path1038" />
  <path
     style="fill:#ff0000;fill-opacity:1;stroke:#20b4af;stroke-width:0.247121"
     d="m 51.945298,32.317244 c -0.07348,-0.309227 -0.211156,-0.812441 -0.305939,-1.118253 -0.222065,-0.71648 0.175839,-0.722234 1.313698,-0.019 0.866831,0.535731 0.867496,0.537538 0.276289,0.750742 -0.325948,0.117545 -0.71814,0.379098 -0.871538,0.58123 -0.23637,0.311464 -0.299281,0.281768 -0.41251,-0.194721 z"
     id="path1040" />
  <path
     style="fill:#ff0000;fill-opacity:1;stroke:#20b4af;stroke-width:0.247121"
     d="m 60.610344,13.608466 -2.405439,-1.411806 1.308118,-0.412347 c 0.719464,-0.226791 1.779428,-0.815772 2.355474,-1.308847 0.576047,-0.4930746 1.077913,-0.8554814 1.115257,-0.8053484 0.379187,0.5090424 0.896952,2.5941734 0.896952,3.6121884 0,1.981881 -0.384076,2.020186 -3.270362,0.32616 z"
     id="path1042" />
  <path
     style="fill:#ff0000;fill-opacity:1;stroke:#20b4af;stroke-width:0.247121"
     d="M 5.6057793,47.682484 C 5.0192153,47.160511 4.1295808,46.602587 3.6288136,46.442655 3.1280465,46.282723 2.636833,46.078247 2.5372281,45.988266 2.4376232,45.898284 3.410661,45.300825 4.6995345,44.660578 l 2.343406,-1.164085 v 2.455 c 0,1.35025 -0.083403,2.505632 -0.1853406,2.567517 -0.1019373,0.06188 -0.6652566,-0.314552 -1.2518206,-0.836526 z"
     id="path1044" />
  <path
     style="fill:#ff0000;fill-opacity:1;stroke:#20b4af;stroke-width:0.247121"
     d="m 62.842618,76.803236 -2.150131,-1.282139 0.914528,-0.514935 c 0.50299,-0.283215 1.564934,-0.879973 2.359876,-1.326129 l 1.44535,-0.811193 -0.182942,1.066149 c -0.205625,1.198348 -0.196665,2.465259 0.02458,3.475576 0.08185,0.37377 0.05658,0.678508 -0.05616,0.677196 -0.112737,-0.0013 -1.172535,-0.579349 -2.355107,-1.284525 z"
     id="path1046" />
</svg>
